<?xml version="1.0" encoding="utf-8" standalone="no"?>
<!DOCTYPE svg PUBLIC "-//W3C//DTD SVG 1.1//EN"
  "http://www.w3.org/Graphics/SVG/1.1/DTD/svg11.dtd">
<svg xmlns:xlink="http://www.w3.org/1999/xlink" width="1080pt" height="432pt" viewBox="0 0 1080 432" xmlns="http://www.w3.org/2000/svg" version="1.1">
 <metadata>
  <rdf:RDF xmlns:dc="http://purl.org/dc/elements/1.1/" xmlns:cc="http://creativecommons.org/ns#" xmlns:rdf="http://www.w3.org/1999/02/22-rdf-syntax-ns#">
   <cc:Work>
    <dc:type rdf:resource="http://purl.org/dc/dcmitype/StillImage"/>
    <dc:date>2025-09-25T15:54:32.784801</dc:date>
    <dc:format>image/svg+xml</dc:format>
    <dc:creator>
     <cc:Agent>
      <dc:title>Matplotlib v3.10.0, https://matplotlib.org/</dc:title>
     </cc:Agent>
    </dc:creator>
   </cc:Work>
  </rdf:RDF>
 </metadata>
 <defs>
  <style type="text/css">*{stroke-linejoin: round; stroke-linecap: butt}</style>
 </defs>
 <g id="figure_1">
  <g id="patch_1">
   <path d="M 0 432 
L 1080 432 
L 1080 0 
L 0 0 
z
" style="fill: #ffffff"/>
  </g>
  <g id="axes_1">
   <g id="patch_2">
    <path d="M 135 384.48 
L 381.176471 384.48 
L 381.176471 51.84 
L 135 51.84 
z
" style="fill: #ffffff"/>
   </g>
   <g id="patch_3">
    <path d="M 159.617647 384.48 
L 179.311765 384.48 
L 179.311765 329.328583 
L 159.617647 329.328583 
z
" clip-path="url(#pa6c51f8f51)" style="fill: #0000ff; stroke: #000000; stroke-width: 0.6; stroke-linejoin: miter"/>
   </g>
   <g id="patch_4">
    <path d="M 208.852941 384.48 
L 228.547059 384.48 
L 228.547059 284.437895 
L 208.852941 284.437895 
z
" clip-path="url(#pa6c51f8f51)" style="fill: #0000ff; stroke: #000000; stroke-width: 0.6; stroke-linejoin: miter"/>
   </g>
   <g id="patch_5">
    <path d="M 258.088235 384.48 
L 277.782353 384.48 
L 277.782353 257.503482 
L 258.088235 257.503482 
z
" clip-path="url(#pa6c51f8f51)" style="fill: #0000ff; stroke: #000000; stroke-width: 0.6; stroke-linejoin: miter"/>
   </g>
   <g id="patch_6">
    <path d="M 307.323529 384.48 
L 327.017647 384.48 
L 327.017647 248.525344 
L 307.323529 248.525344 
z
" clip-path="url(#pa6c51f8f51)" style="fill: #0000ff; stroke: #000000; stroke-width: 0.6; stroke-linejoin: miter"/>
   </g>
   <g id="patch_7">
    <path d="M 356.558824 384.48 
L 376.252941 384.48 
L 376.252941 235.699433 
L 356.558824 235.699433 
z
" clip-path="url(#pa6c51f8f51)" style="fill: #0000ff; stroke: #000000; stroke-width: 0.6; stroke-linejoin: miter"/>
   </g>
   <g id="patch_8">
    <path d="M 159.617647 329.328583 
L 179.311765 329.328583 
L 179.311765 276.742348 
L 159.617647 276.742348 
z
" clip-path="url(#pa6c51f8f51)" style="fill: #6495ed; stroke: #000000; stroke-width: 0.6; stroke-linejoin: miter"/>
   </g>
   <g id="patch_9">
    <path d="M 208.852941 284.437895 
L 228.547059 284.437895 
L 228.547059 188.243563 
L 208.852941 188.243563 
z
" clip-path="url(#pa6c51f8f51)" style="fill: #6495ed; stroke: #000000; stroke-width: 0.6; stroke-linejoin: miter"/>
   </g>
   <g id="patch_10">
    <path d="M 258.088235 257.503482 
L 277.782353 257.503482 
L 277.782353 121.548826 
L 258.088235 121.548826 
z
" clip-path="url(#pa6c51f8f51)" style="fill: #6495ed; stroke: #000000; stroke-width: 0.6; stroke-linejoin: miter"/>
   </g>
   <g id="patch_11">
    <path d="M 307.323529 248.525344 
L 327.017647 248.525344 
L 327.017647 95.897004 
L 307.323529 95.897004 
z
" clip-path="url(#pa6c51f8f51)" style="fill: #6495ed; stroke: #000000; stroke-width: 0.6; stroke-linejoin: miter"/>
   </g>
   <g id="patch_12">
    <path d="M 356.558824 235.699433 
L 376.252941 235.699433 
L 376.252941 80.505911 
L 356.558824 80.505911 
z
" clip-path="url(#pa6c51f8f51)" style="fill: #6495ed; stroke: #000000; stroke-width: 0.6; stroke-linejoin: miter"/>
   </g>
   <g id="patch_13">
    <path d="M 159.617647 276.742348 
L 179.311765 276.742348 
L 179.311765 67.68 
L 159.617647 67.68 
z
" clip-path="url(#pa6c51f8f51)" style="fill: #00bfff; stroke: #000000; stroke-width: 0.6; stroke-linejoin: miter"/>
   </g>
   <g id="patch_14">
    <path d="M 208.852941 188.243563 
L 228.547059 188.243563 
L 228.547059 67.68 
L 208.852941 67.68 
z
" clip-path="url(#pa6c51f8f51)" style="fill: #00bfff; stroke: #000000; stroke-width: 0.6; stroke-linejoin: miter"/>
   </g>
   <g id="patch_15">
    <path d="M 258.088235 121.548826 
L 277.782353 121.548826 
L 277.782353 67.68 
L 258.088235 67.68 
z
" clip-path="url(#pa6c51f8f51)" style="fill: #00bfff; stroke: #000000; stroke-width: 0.6; stroke-linejoin: miter"/>
   </g>
   <g id="patch_16">
    <path d="M 307.323529 95.897004 
L 327.017647 95.897004 
L 327.017647 67.68 
L 307.323529 67.68 
z
" clip-path="url(#pa6c51f8f51)" style="fill: #00bfff; stroke: #000000; stroke-width: 0.6; stroke-linejoin: miter"/>
   </g>
   <g id="patch_17">
    <path d="M 356.558824 80.505911 
L 376.252941 80.505911 
L 376.252941 67.68 
L 356.558824 67.68 
z
" clip-path="url(#pa6c51f8f51)" style="fill: #00bfff; stroke: #000000; stroke-width: 0.6; stroke-linejoin: miter"/>
   </g>
   <g id="patch_18">
    <path d="M 159.617647 384.48 
L 139.923529 384.48 
L 139.923529 342.214868 
L 159.617647 342.214868 
z
" clip-path="url(#pa6c51f8f51)" style="fill: #228b22; stroke: #000000; stroke-opacity: 0.6; stroke-width: 0.6; stroke-linejoin: miter"/>
   </g>
   <g id="patch_19">
    <path d="M 208.852941 384.48 
L 189.158824 384.48 
L 189.158824 302.201095 
L 208.852941 302.201095 
z
" clip-path="url(#pa6c51f8f51)" style="fill: #228b22; stroke: #000000; stroke-opacity: 0.6; stroke-width: 0.6; stroke-linejoin: miter"/>
   </g>
   <g id="patch_20">
    <path d="M 258.088235 384.48 
L 238.394118 384.48 
L 238.394118 277.713635 
L 258.088235 277.713635 
z
" clip-path="url(#pa6c51f8f51)" style="fill: #228b22; stroke: #000000; stroke-opacity: 0.6; stroke-width: 0.6; stroke-linejoin: miter"/>
   </g>
   <g id="patch_21">
    <path d="M 307.323529 384.48 
L 287.629412 384.48 
L 287.629412 262.792755 
L 307.323529 262.792755 
z
" clip-path="url(#pa6c51f8f51)" style="fill: #228b22; stroke: #000000; stroke-opacity: 0.6; stroke-width: 0.6; stroke-linejoin: miter"/>
   </g>
   <g id="patch_22">
    <path d="M 356.558824 384.48 
L 336.864706 384.48 
L 336.864706 255.048835 
L 356.558824 255.048835 
z
" clip-path="url(#pa6c51f8f51)" style="fill: #228b22; stroke: #000000; stroke-opacity: 0.6; stroke-width: 0.6; stroke-linejoin: miter"/>
   </g>
   <g id="patch_23">
    <path d="M 159.617647 342.214868 
L 139.923529 342.214868 
L 139.923529 301.201588 
L 159.617647 301.201588 
z
" clip-path="url(#pa6c51f8f51)" style="fill: #3cb371; stroke: #000000; stroke-opacity: 0.6; stroke-width: 0.6; stroke-linejoin: miter"/>
   </g>
   <g id="patch_24">
    <path d="M 208.852941 302.201095 
L 189.158824 302.201095 
L 189.158824 209.395711 
L 208.852941 209.395711 
z
" clip-path="url(#pa6c51f8f51)" style="fill: #3cb371; stroke: #000000; stroke-opacity: 0.6; stroke-width: 0.6; stroke-linejoin: miter"/>
   </g>
   <g id="patch_25">
    <path d="M 258.088235 277.713635 
L 238.394118 277.713635 
L 238.394118 142.055018 
L 258.088235 142.055018 
z
" clip-path="url(#pa6c51f8f51)" style="fill: #3cb371; stroke: #000000; stroke-opacity: 0.6; stroke-width: 0.6; stroke-linejoin: miter"/>
   </g>
   <g id="patch_26">
    <path d="M 307.323529 262.792755 
L 287.629412 262.792755 
L 287.629412 101.858236 
L 307.323529 101.858236 
z
" clip-path="url(#pa6c51f8f51)" style="fill: #3cb371; stroke: #000000; stroke-opacity: 0.6; stroke-width: 0.6; stroke-linejoin: miter"/>
   </g>
   <g id="patch_27">
    <path d="M 356.558824 255.048835 
L 336.864706 255.048835 
L 336.864706 84.741752 
L 356.558824 84.741752 
z
" clip-path="url(#pa6c51f8f51)" style="fill: #3cb371; stroke: #000000; stroke-opacity: 0.6; stroke-width: 0.6; stroke-linejoin: miter"/>
   </g>
   <g id="patch_28">
    <path d="M 159.617647 301.201588 
L 139.923529 301.201588 
L 139.923529 67.68 
L 159.617647 67.68 
z
" clip-path="url(#pa6c51f8f51)" style="fill: #9acd32; stroke: #000000; stroke-opacity: 0.6; stroke-width: 0.6; stroke-linejoin: miter"/>
   </g>
   <g id="patch_29">
    <path d="M 208.852941 209.395711 
L 189.158824 209.395711 
L 189.158824 67.68 
L 208.852941 67.68 
z
" clip-path="url(#pa6c51f8f51)" style="fill: #9acd32; stroke: #000000; stroke-opacity: 0.6; stroke-width: 0.6; stroke-linejoin: miter"/>
   </g>
   <g id="patch_30">
    <path d="M 258.088235 142.055018 
L 238.394118 142.055018 
L 238.394118 67.68 
L 258.088235 67.68 
z
" clip-path="url(#pa6c51f8f51)" style="fill: #9acd32; stroke: #000000; stroke-opacity: 0.6; stroke-width: 0.6; stroke-linejoin: miter"/>
   </g>
   <g id="patch_31">
    <path d="M 307.323529 101.858236 
L 287.629412 101.858236 
L 287.629412 67.68 
L 307.323529 67.68 
z
" clip-path="url(#pa6c51f8f51)" style="fill: #9acd32; stroke: #000000; stroke-opacity: 0.6; stroke-width: 0.6; stroke-linejoin: miter"/>
   </g>
   <g id="patch_32">
    <path d="M 356.558824 84.741752 
L 336.864706 84.741752 
L 336.864706 67.68 
L 356.558824 67.68 
z
" clip-path="url(#pa6c51f8f51)" style="fill: #9acd32; stroke: #000000; stroke-opacity: 0.6; stroke-width: 0.6; stroke-linejoin: miter"/>
   </g>
   <g id="matplotlib.axis_1">
    <g id="xtick_1">
     <g id="line2d_1">
      <defs>
       <path id="mfbae29473d" d="M 0 0 
L 0 3.5 
" style="stroke: #000000; stroke-width: 0.8"/>
      </defs>
      <g>
       <use xlink:href="#mfbae29473d" x="159.617647" y="384.48" style="stroke: #000000; stroke-width: 0.8"/>
      </g>
     </g>
     <g id="text_1">
      <!-- 2.0 -->
      <g transform="translate(149.280616 401.357969) scale(0.13 -0.13)">
       <defs>
        <path id="DejaVuSans-32" d="M 1228 531 
L 3431 531 
L 3431 0 
L 469 0 
L 469 531 
Q 828 903 1448 1529 
Q 2069 2156 2228 2338 
Q 2531 2678 2651 2914 
Q 2772 3150 2772 3378 
Q 2772 3750 2511 3984 
Q 2250 4219 1831 4219 
Q 1534 4219 1204 4116 
Q 875 4013 500 3803 
L 500 4441 
Q 881 4594 1212 4672 
Q 1544 4750 1819 4750 
Q 2544 4750 2975 4387 
Q 3406 4025 3406 3419 
Q 3406 3131 3298 2873 
Q 3191 2616 2906 2266 
Q 2828 2175 2409 1742 
Q 1991 1309 1228 531 
z
" transform="scale(0.015625)"/>
        <path id="DejaVuSans-2e" d="M 684 794 
L 1344 794 
L 1344 0 
L 684 0 
L 684 794 
z
" transform="scale(0.015625)"/>
        <path id="DejaVuSans-30" d="M 2034 4250 
Q 1547 4250 1301 3770 
Q 1056 3291 1056 2328 
Q 1056 1369 1301 889 
Q 1547 409 2034 409 
Q 2525 409 2770 889 
Q 3016 1369 3016 2328 
Q 3016 3291 2770 3770 
Q 2525 4250 2034 4250 
z
M 2034 4750 
Q 2819 4750 3233 4129 
Q 3647 3509 3647 2328 
Q 3647 1150 3233 529 
Q 2819 -91 2034 -91 
Q 1250 -91 836 529 
Q 422 1150 422 2328 
Q 422 3509 836 4129 
Q 1250 4750 2034 4750 
z
" transform="scale(0.015625)"/>
       </defs>
       <use xlink:href="#DejaVuSans-32"/>
       <use xlink:href="#DejaVuSans-2e" transform="translate(63.623047 0)"/>
       <use xlink:href="#DejaVuSans-30" transform="translate(95.410156 0)"/>
      </g>
     </g>
    </g>
    <g id="xtick_2">
     <g id="line2d_2">
      <g>
       <use xlink:href="#mfbae29473d" x="208.852941" y="384.48" style="stroke: #000000; stroke-width: 0.8"/>
      </g>
     </g>
     <g id="text_2">
      <!-- 2.5 -->
      <g transform="translate(198.51591 401.357969) scale(0.13 -0.13)">
       <defs>
        <path id="DejaVuSans-35" d="M 691 4666 
L 3169 4666 
L 3169 4134 
L 1269 4134 
L 1269 2991 
Q 1406 3038 1543 3061 
Q 1681 3084 1819 3084 
Q 2600 3084 3056 2656 
Q 3513 2228 3513 1497 
Q 3513 744 3044 326 
Q 2575 -91 1722 -91 
Q 1428 -91 1123 -41 
Q 819 9 494 109 
L 494 744 
Q 775 591 1075 516 
Q 1375 441 1709 441 
Q 2250 441 2565 725 
Q 2881 1009 2881 1497 
Q 2881 1984 2565 2268 
Q 2250 2553 1709 2553 
Q 1456 2553 1204 2497 
Q 953 2441 691 2322 
L 691 4666 
z
" transform="scale(0.015625)"/>
       </defs>
       <use xlink:href="#DejaVuSans-32"/>
       <use xlink:href="#DejaVuSans-2e" transform="translate(63.623047 0)"/>
       <use xlink:href="#DejaVuSans-35" transform="translate(95.410156 0)"/>
      </g>
     </g>
    </g>
    <g id="xtick_3">
     <g id="line2d_3">
      <g>
       <use xlink:href="#mfbae29473d" x="258.088235" y="384.48" style="stroke: #000000; stroke-width: 0.8"/>
      </g>
     </g>
     <g id="text_3">
      <!-- 3.0 -->
      <g transform="translate(247.751204 401.357969) scale(0.13 -0.13)">
       <defs>
        <path id="DejaVuSans-33" d="M 2597 2516 
Q 3050 2419 3304 2112 
Q 3559 1806 3559 1356 
Q 3559 666 3084 287 
Q 2609 -91 1734 -91 
Q 1441 -91 1130 -33 
Q 819 25 488 141 
L 488 750 
Q 750 597 1062 519 
Q 1375 441 1716 441 
Q 2309 441 2620 675 
Q 2931 909 2931 1356 
Q 2931 1769 2642 2001 
Q 2353 2234 1838 2234 
L 1294 2234 
L 1294 2753 
L 1863 2753 
Q 2328 2753 2575 2939 
Q 2822 3125 2822 3475 
Q 2822 3834 2567 4026 
Q 2313 4219 1838 4219 
Q 1578 4219 1281 4162 
Q 984 4106 628 3988 
L 628 4550 
Q 988 4650 1302 4700 
Q 1616 4750 1894 4750 
Q 2613 4750 3031 4423 
Q 3450 4097 3450 3541 
Q 3450 3153 3228 2886 
Q 3006 2619 2597 2516 
z
" transform="scale(0.015625)"/>
       </defs>
       <use xlink:href="#DejaVuSans-33"/>
       <use xlink:href="#DejaVuSans-2e" transform="translate(63.623047 0)"/>
       <use xlink:href="#DejaVuSans-30" transform="translate(95.410156 0)"/>
      </g>
     </g>
    </g>
    <g id="xtick_4">
     <g id="line2d_4">
      <g>
       <use xlink:href="#mfbae29473d" x="307.323529" y="384.48" style="stroke: #000000; stroke-width: 0.8"/>
      </g>
     </g>
     <g id="text_4">
      <!-- 3.5 -->
      <g transform="translate(296.986498 401.357969) scale(0.13 -0.13)">
       <use xlink:href="#DejaVuSans-33"/>
       <use xlink:href="#DejaVuSans-2e" transform="translate(63.623047 0)"/>
       <use xlink:href="#DejaVuSans-35" transform="translate(95.410156 0)"/>
      </g>
     </g>
    </g>
    <g id="xtick_5">
     <g id="line2d_5">
      <g>
       <use xlink:href="#mfbae29473d" x="356.558824" y="384.48" style="stroke: #000000; stroke-width: 0.8"/>
      </g>
     </g>
     <g id="text_5">
      <!-- 4.0 -->
      <g transform="translate(346.221792 401.357969) scale(0.13 -0.13)">
       <defs>
        <path id="DejaVuSans-34" d="M 2419 4116 
L 825 1625 
L 2419 1625 
L 2419 4116 
z
M 2253 4666 
L 3047 4666 
L 3047 1625 
L 3713 1625 
L 3713 1100 
L 3047 1100 
L 3047 0 
L 2419 0 
L 2419 1100 
L 313 1100 
L 313 1709 
L 2253 4666 
z
" transform="scale(0.015625)"/>
       </defs>
       <use xlink:href="#DejaVuSans-34"/>
       <use xlink:href="#DejaVuSans-2e" transform="translate(63.623047 0)"/>
       <use xlink:href="#DejaVuSans-30" transform="translate(95.410156 0)"/>
      </g>
     </g>
    </g>
    <g id="text_6">
     <!-- $\tau$[s] -->
     <g transform="translate(245.673235 417.939531) scale(0.13 -0.13)">
      <defs>
       <path id="DejaVuSans-Oblique-3c4" d="M 2103 638 
Q 2188 488 2525 488 
L 2800 488 
L 2706 0 
L 2363 0 
Q 1800 0 1600 300 
Q 1403 606 1534 1269 
L 1856 2925 
L 541 2925 
L 653 3500 
L 3881 3500 
L 3769 2925 
L 2444 2925 
L 2113 1234 
Q 2025 781 2103 638 
z
" transform="scale(0.015625)"/>
       <path id="DejaVuSans-5b" d="M 550 4863 
L 1875 4863 
L 1875 4416 
L 1125 4416 
L 1125 -397 
L 1875 -397 
L 1875 -844 
L 550 -844 
L 550 4863 
z
" transform="scale(0.015625)"/>
       <path id="DejaVuSans-73" d="M 2834 3397 
L 2834 2853 
Q 2591 2978 2328 3040 
Q 2066 3103 1784 3103 
Q 1356 3103 1142 2972 
Q 928 2841 928 2578 
Q 928 2378 1081 2264 
Q 1234 2150 1697 2047 
L 1894 2003 
Q 2506 1872 2764 1633 
Q 3022 1394 3022 966 
Q 3022 478 2636 193 
Q 2250 -91 1575 -91 
Q 1294 -91 989 -36 
Q 684 19 347 128 
L 347 722 
Q 666 556 975 473 
Q 1284 391 1588 391 
Q 1994 391 2212 530 
Q 2431 669 2431 922 
Q 2431 1156 2273 1281 
Q 2116 1406 1581 1522 
L 1381 1569 
Q 847 1681 609 1914 
Q 372 2147 372 2553 
Q 372 3047 722 3315 
Q 1072 3584 1716 3584 
Q 2034 3584 2315 3537 
Q 2597 3491 2834 3397 
z
" transform="scale(0.015625)"/>
       <path id="DejaVuSans-5d" d="M 1947 4863 
L 1947 -844 
L 622 -844 
L 622 -397 
L 1369 -397 
L 1369 4416 
L 622 4416 
L 622 4863 
L 1947 4863 
z
" transform="scale(0.015625)"/>
      </defs>
      <use xlink:href="#DejaVuSans-Oblique-3c4" transform="translate(0 0.015625)"/>
      <use xlink:href="#DejaVuSans-5b" transform="translate(60.205078 0.015625)"/>
      <use xlink:href="#DejaVuSans-73" transform="translate(99.21875 0.015625)"/>
      <use xlink:href="#DejaVuSans-5d" transform="translate(151.318359 0.015625)"/>
     </g>
    </g>
   </g>
   <g id="matplotlib.axis_2">
    <g id="ytick_1">
     <g id="line2d_6">
      <defs>
       <path id="m6d3e9d4ae3" d="M 0 0 
L -3.5 0 
" style="stroke: #000000; stroke-width: 0.8"/>
      </defs>
      <g>
       <use xlink:href="#m6d3e9d4ae3" x="135" y="384.48" style="stroke: #000000; stroke-width: 0.8"/>
      </g>
     </g>
     <g id="text_7">
      <!-- 0 -->
      <g transform="translate(119.72875 389.418984) scale(0.13 -0.13)">
       <use xlink:href="#DejaVuSans-30"/>
      </g>
     </g>
    </g>
    <g id="ytick_2">
     <g id="line2d_7">
      <g>
       <use xlink:href="#m6d3e9d4ae3" x="135" y="321.12" style="stroke: #000000; stroke-width: 0.8"/>
      </g>
     </g>
     <g id="text_8">
      <!-- 20 -->
      <g transform="translate(111.4575 326.058984) scale(0.13 -0.13)">
       <use xlink:href="#DejaVuSans-32"/>
       <use xlink:href="#DejaVuSans-30" transform="translate(63.623047 0)"/>
      </g>
     </g>
    </g>
    <g id="ytick_3">
     <g id="line2d_8">
      <g>
       <use xlink:href="#m6d3e9d4ae3" x="135" y="257.76" style="stroke: #000000; stroke-width: 0.8"/>
      </g>
     </g>
     <g id="text_9">
      <!-- 40 -->
      <g transform="translate(111.4575 262.698984) scale(0.13 -0.13)">
       <use xlink:href="#DejaVuSans-34"/>
       <use xlink:href="#DejaVuSans-30" transform="translate(63.623047 0)"/>
      </g>
     </g>
    </g>
    <g id="ytick_4">
     <g id="line2d_9">
      <g>
       <use xlink:href="#m6d3e9d4ae3" x="135" y="194.4" style="stroke: #000000; stroke-width: 0.8"/>
      </g>
     </g>
     <g id="text_10">
      <!-- 60 -->
      <g transform="translate(111.4575 199.338984) scale(0.13 -0.13)">
       <defs>
        <path id="DejaVuSans-36" d="M 2113 2584 
Q 1688 2584 1439 2293 
Q 1191 2003 1191 1497 
Q 1191 994 1439 701 
Q 1688 409 2113 409 
Q 2538 409 2786 701 
Q 3034 994 3034 1497 
Q 3034 2003 2786 2293 
Q 2538 2584 2113 2584 
z
M 3366 4563 
L 3366 3988 
Q 3128 4100 2886 4159 
Q 2644 4219 2406 4219 
Q 1781 4219 1451 3797 
Q 1122 3375 1075 2522 
Q 1259 2794 1537 2939 
Q 1816 3084 2150 3084 
Q 2853 3084 3261 2657 
Q 3669 2231 3669 1497 
Q 3669 778 3244 343 
Q 2819 -91 2113 -91 
Q 1303 -91 875 529 
Q 447 1150 447 2328 
Q 447 3434 972 4092 
Q 1497 4750 2381 4750 
Q 2619 4750 2861 4703 
Q 3103 4656 3366 4563 
z
" transform="scale(0.015625)"/>
       </defs>
       <use xlink:href="#DejaVuSans-36"/>
       <use xlink:href="#DejaVuSans-30" transform="translate(63.623047 0)"/>
      </g>
     </g>
    </g>
    <g id="ytick_5">
     <g id="line2d_10">
      <g>
       <use xlink:href="#m6d3e9d4ae3" x="135" y="131.04" style="stroke: #000000; stroke-width: 0.8"/>
      </g>
     </g>
     <g id="text_11">
      <!-- 80 -->
      <g transform="translate(111.4575 135.978984) scale(0.13 -0.13)">
       <defs>
        <path id="DejaVuSans-38" d="M 2034 2216 
Q 1584 2216 1326 1975 
Q 1069 1734 1069 1313 
Q 1069 891 1326 650 
Q 1584 409 2034 409 
Q 2484 409 2743 651 
Q 3003 894 3003 1313 
Q 3003 1734 2745 1975 
Q 2488 2216 2034 2216 
z
M 1403 2484 
Q 997 2584 770 2862 
Q 544 3141 544 3541 
Q 544 4100 942 4425 
Q 1341 4750 2034 4750 
Q 2731 4750 3128 4425 
Q 3525 4100 3525 3541 
Q 3525 3141 3298 2862 
Q 3072 2584 2669 2484 
Q 3125 2378 3379 2068 
Q 3634 1759 3634 1313 
Q 3634 634 3220 271 
Q 2806 -91 2034 -91 
Q 1263 -91 848 271 
Q 434 634 434 1313 
Q 434 1759 690 2068 
Q 947 2378 1403 2484 
z
M 1172 3481 
Q 1172 3119 1398 2916 
Q 1625 2713 2034 2713 
Q 2441 2713 2670 2916 
Q 2900 3119 2900 3481 
Q 2900 3844 2670 4047 
Q 2441 4250 2034 4250 
Q 1625 4250 1398 4047 
Q 1172 3844 1172 3481 
z
" transform="scale(0.015625)"/>
       </defs>
       <use xlink:href="#DejaVuSans-38"/>
       <use xlink:href="#DejaVuSans-30" transform="translate(63.623047 0)"/>
      </g>
     </g>
    </g>
    <g id="ytick_6">
     <g id="line2d_11">
      <g>
       <use xlink:href="#m6d3e9d4ae3" x="135" y="67.68" style="stroke: #000000; stroke-width: 0.8"/>
      </g>
     </g>
     <g id="text_12">
      <!-- 100 -->
      <g transform="translate(103.18625 72.618984) scale(0.13 -0.13)">
       <defs>
        <path id="DejaVuSans-31" d="M 794 531 
L 1825 531 
L 1825 4091 
L 703 3866 
L 703 4441 
L 1819 4666 
L 2450 4666 
L 2450 531 
L 3481 531 
L 3481 0 
L 794 0 
L 794 531 
z
" transform="scale(0.015625)"/>
       </defs>
       <use xlink:href="#DejaVuSans-31"/>
       <use xlink:href="#DejaVuSans-30" transform="translate(63.623047 0)"/>
       <use xlink:href="#DejaVuSans-30" transform="translate(127.246094 0)"/>
      </g>
     </g>
    </g>
    <g id="text_13">
     <!-- Cumulative pocket outcome per 100 plays -->
     <g transform="translate(96.482656 356.222031) rotate(-90) scale(0.13 -0.13)">
      <defs>
       <path id="DejaVuSans-43" d="M 4122 4306 
L 4122 3641 
Q 3803 3938 3442 4084 
Q 3081 4231 2675 4231 
Q 1875 4231 1450 3742 
Q 1025 3253 1025 2328 
Q 1025 1406 1450 917 
Q 1875 428 2675 428 
Q 3081 428 3442 575 
Q 3803 722 4122 1019 
L 4122 359 
Q 3791 134 3420 21 
Q 3050 -91 2638 -91 
Q 1578 -91 968 557 
Q 359 1206 359 2328 
Q 359 3453 968 4101 
Q 1578 4750 2638 4750 
Q 3056 4750 3426 4639 
Q 3797 4528 4122 4306 
z
" transform="scale(0.015625)"/>
       <path id="DejaVuSans-75" d="M 544 1381 
L 544 3500 
L 1119 3500 
L 1119 1403 
Q 1119 906 1312 657 
Q 1506 409 1894 409 
Q 2359 409 2629 706 
Q 2900 1003 2900 1516 
L 2900 3500 
L 3475 3500 
L 3475 0 
L 2900 0 
L 2900 538 
Q 2691 219 2414 64 
Q 2138 -91 1772 -91 
Q 1169 -91 856 284 
Q 544 659 544 1381 
z
M 1991 3584 
L 1991 3584 
z
" transform="scale(0.015625)"/>
       <path id="DejaVuSans-6d" d="M 3328 2828 
Q 3544 3216 3844 3400 
Q 4144 3584 4550 3584 
Q 5097 3584 5394 3201 
Q 5691 2819 5691 2113 
L 5691 0 
L 5113 0 
L 5113 2094 
Q 5113 2597 4934 2840 
Q 4756 3084 4391 3084 
Q 3944 3084 3684 2787 
Q 3425 2491 3425 1978 
L 3425 0 
L 2847 0 
L 2847 2094 
Q 2847 2600 2669 2842 
Q 2491 3084 2119 3084 
Q 1678 3084 1418 2786 
Q 1159 2488 1159 1978 
L 1159 0 
L 581 0 
L 581 3500 
L 1159 3500 
L 1159 2956 
Q 1356 3278 1631 3431 
Q 1906 3584 2284 3584 
Q 2666 3584 2933 3390 
Q 3200 3197 3328 2828 
z
" transform="scale(0.015625)"/>
       <path id="DejaVuSans-6c" d="M 603 4863 
L 1178 4863 
L 1178 0 
L 603 0 
L 603 4863 
z
" transform="scale(0.015625)"/>
       <path id="DejaVuSans-61" d="M 2194 1759 
Q 1497 1759 1228 1600 
Q 959 1441 959 1056 
Q 959 750 1161 570 
Q 1363 391 1709 391 
Q 2188 391 2477 730 
Q 2766 1069 2766 1631 
L 2766 1759 
L 2194 1759 
z
M 3341 1997 
L 3341 0 
L 2766 0 
L 2766 531 
Q 2569 213 2275 61 
Q 1981 -91 1556 -91 
Q 1019 -91 701 211 
Q 384 513 384 1019 
Q 384 1609 779 1909 
Q 1175 2209 1959 2209 
L 2766 2209 
L 2766 2266 
Q 2766 2663 2505 2880 
Q 2244 3097 1772 3097 
Q 1472 3097 1187 3025 
Q 903 2953 641 2809 
L 641 3341 
Q 956 3463 1253 3523 
Q 1550 3584 1831 3584 
Q 2591 3584 2966 3190 
Q 3341 2797 3341 1997 
z
" transform="scale(0.015625)"/>
       <path id="DejaVuSans-74" d="M 1172 4494 
L 1172 3500 
L 2356 3500 
L 2356 3053 
L 1172 3053 
L 1172 1153 
Q 1172 725 1289 603 
Q 1406 481 1766 481 
L 2356 481 
L 2356 0 
L 1766 0 
Q 1100 0 847 248 
Q 594 497 594 1153 
L 594 3053 
L 172 3053 
L 172 3500 
L 594 3500 
L 594 4494 
L 1172 4494 
z
" transform="scale(0.015625)"/>
       <path id="DejaVuSans-69" d="M 603 3500 
L 1178 3500 
L 1178 0 
L 603 0 
L 603 3500 
z
M 603 4863 
L 1178 4863 
L 1178 4134 
L 603 4134 
L 603 4863 
z
" transform="scale(0.015625)"/>
       <path id="DejaVuSans-76" d="M 191 3500 
L 800 3500 
L 1894 563 
L 2988 3500 
L 3597 3500 
L 2284 0 
L 1503 0 
L 191 3500 
z
" transform="scale(0.015625)"/>
       <path id="DejaVuSans-65" d="M 3597 1894 
L 3597 1613 
L 953 1613 
Q 991 1019 1311 708 
Q 1631 397 2203 397 
Q 2534 397 2845 478 
Q 3156 559 3463 722 
L 3463 178 
Q 3153 47 2828 -22 
Q 2503 -91 2169 -91 
Q 1331 -91 842 396 
Q 353 884 353 1716 
Q 353 2575 817 3079 
Q 1281 3584 2069 3584 
Q 2775 3584 3186 3129 
Q 3597 2675 3597 1894 
z
M 3022 2063 
Q 3016 2534 2758 2815 
Q 2500 3097 2075 3097 
Q 1594 3097 1305 2825 
Q 1016 2553 972 2059 
L 3022 2063 
z
" transform="scale(0.015625)"/>
       <path id="DejaVuSans-20" transform="scale(0.015625)"/>
       <path id="DejaVuSans-70" d="M 1159 525 
L 1159 -1331 
L 581 -1331 
L 581 3500 
L 1159 3500 
L 1159 2969 
Q 1341 3281 1617 3432 
Q 1894 3584 2278 3584 
Q 2916 3584 3314 3078 
Q 3713 2572 3713 1747 
Q 3713 922 3314 415 
Q 2916 -91 2278 -91 
Q 1894 -91 1617 61 
Q 1341 213 1159 525 
z
M 3116 1747 
Q 3116 2381 2855 2742 
Q 2594 3103 2138 3103 
Q 1681 3103 1420 2742 
Q 1159 2381 1159 1747 
Q 1159 1113 1420 752 
Q 1681 391 2138 391 
Q 2594 391 2855 752 
Q 3116 1113 3116 1747 
z
" transform="scale(0.015625)"/>
       <path id="DejaVuSans-6f" d="M 1959 3097 
Q 1497 3097 1228 2736 
Q 959 2375 959 1747 
Q 959 1119 1226 758 
Q 1494 397 1959 397 
Q 2419 397 2687 759 
Q 2956 1122 2956 1747 
Q 2956 2369 2687 2733 
Q 2419 3097 1959 3097 
z
M 1959 3584 
Q 2709 3584 3137 3096 
Q 3566 2609 3566 1747 
Q 3566 888 3137 398 
Q 2709 -91 1959 -91 
Q 1206 -91 779 398 
Q 353 888 353 1747 
Q 353 2609 779 3096 
Q 1206 3584 1959 3584 
z
" transform="scale(0.015625)"/>
       <path id="DejaVuSans-63" d="M 3122 3366 
L 3122 2828 
Q 2878 2963 2633 3030 
Q 2388 3097 2138 3097 
Q 1578 3097 1268 2742 
Q 959 2388 959 1747 
Q 959 1106 1268 751 
Q 1578 397 2138 397 
Q 2388 397 2633 464 
Q 2878 531 3122 666 
L 3122 134 
Q 2881 22 2623 -34 
Q 2366 -91 2075 -91 
Q 1284 -91 818 406 
Q 353 903 353 1747 
Q 353 2603 823 3093 
Q 1294 3584 2113 3584 
Q 2378 3584 2631 3529 
Q 2884 3475 3122 3366 
z
" transform="scale(0.015625)"/>
       <path id="DejaVuSans-6b" d="M 581 4863 
L 1159 4863 
L 1159 1991 
L 2875 3500 
L 3609 3500 
L 1753 1863 
L 3688 0 
L 2938 0 
L 1159 1709 
L 1159 0 
L 581 0 
L 581 4863 
z
" transform="scale(0.015625)"/>
       <path id="DejaVuSans-72" d="M 2631 2963 
Q 2534 3019 2420 3045 
Q 2306 3072 2169 3072 
Q 1681 3072 1420 2755 
Q 1159 2438 1159 1844 
L 1159 0 
L 581 0 
L 581 3500 
L 1159 3500 
L 1159 2956 
Q 1341 3275 1631 3429 
Q 1922 3584 2338 3584 
Q 2397 3584 2469 3576 
Q 2541 3569 2628 3553 
L 2631 2963 
z
" transform="scale(0.015625)"/>
       <path id="DejaVuSans-79" d="M 2059 -325 
Q 1816 -950 1584 -1140 
Q 1353 -1331 966 -1331 
L 506 -1331 
L 506 -850 
L 844 -850 
Q 1081 -850 1212 -737 
Q 1344 -625 1503 -206 
L 1606 56 
L 191 3500 
L 800 3500 
L 1894 763 
L 2988 3500 
L 3597 3500 
L 2059 -325 
z
" transform="scale(0.015625)"/>
      </defs>
      <use xlink:href="#DejaVuSans-43"/>
      <use xlink:href="#DejaVuSans-75" transform="translate(69.824219 0)"/>
      <use xlink:href="#DejaVuSans-6d" transform="translate(133.203125 0)"/>
      <use xlink:href="#DejaVuSans-75" transform="translate(230.615234 0)"/>
      <use xlink:href="#DejaVuSans-6c" transform="translate(293.994141 0)"/>
      <use xlink:href="#DejaVuSans-61" transform="translate(321.777344 0)"/>
      <use xlink:href="#DejaVuSans-74" transform="translate(383.056641 0)"/>
      <use xlink:href="#DejaVuSans-69" transform="translate(422.265625 0)"/>
      <use xlink:href="#DejaVuSans-76" transform="translate(450.048828 0)"/>
      <use xlink:href="#DejaVuSans-65" transform="translate(509.228516 0)"/>
      <use xlink:href="#DejaVuSans-20" transform="translate(570.751953 0)"/>
      <use xlink:href="#DejaVuSans-70" transform="translate(602.539062 0)"/>
      <use xlink:href="#DejaVuSans-6f" transform="translate(666.015625 0)"/>
      <use xlink:href="#DejaVuSans-63" transform="translate(727.197266 0)"/>
      <use xlink:href="#DejaVuSans-6b" transform="translate(782.177734 0)"/>
      <use xlink:href="#DejaVuSans-65" transform="translate(836.462891 0)"/>
      <use xlink:href="#DejaVuSans-74" transform="translate(897.986328 0)"/>
      <use xlink:href="#DejaVuSans-20" transform="translate(937.195312 0)"/>
      <use xlink:href="#DejaVuSans-6f" transform="translate(968.982422 0)"/>
      <use xlink:href="#DejaVuSans-75" transform="translate(1030.164062 0)"/>
      <use xlink:href="#DejaVuSans-74" transform="translate(1093.542969 0)"/>
      <use xlink:href="#DejaVuSans-63" transform="translate(1132.751953 0)"/>
      <use xlink:href="#DejaVuSans-6f" transform="translate(1187.732422 0)"/>
      <use xlink:href="#DejaVuSans-6d" transform="translate(1248.914062 0)"/>
      <use xlink:href="#DejaVuSans-65" transform="translate(1346.326172 0)"/>
      <use xlink:href="#DejaVuSans-20" transform="translate(1407.849609 0)"/>
      <use xlink:href="#DejaVuSans-70" transform="translate(1439.636719 0)"/>
      <use xlink:href="#DejaVuSans-65" transform="translate(1503.113281 0)"/>
      <use xlink:href="#DejaVuSans-72" transform="translate(1564.636719 0)"/>
      <use xlink:href="#DejaVuSans-20" transform="translate(1605.75 0)"/>
      <use xlink:href="#DejaVuSans-31" transform="translate(1637.537109 0)"/>
      <use xlink:href="#DejaVuSans-30" transform="translate(1701.160156 0)"/>
      <use xlink:href="#DejaVuSans-30" transform="translate(1764.783203 0)"/>
      <use xlink:href="#DejaVuSans-20" transform="translate(1828.40625 0)"/>
      <use xlink:href="#DejaVuSans-70" transform="translate(1860.193359 0)"/>
      <use xlink:href="#DejaVuSans-6c" transform="translate(1923.669922 0)"/>
      <use xlink:href="#DejaVuSans-61" transform="translate(1951.453125 0)"/>
      <use xlink:href="#DejaVuSans-79" transform="translate(2012.732422 0)"/>
      <use xlink:href="#DejaVuSans-73" transform="translate(2071.912109 0)"/>
     </g>
    </g>
   </g>
   <g id="patch_33">
    <path d="M 135 384.48 
L 135 51.84 
" style="fill: none; stroke: #000000; stroke-width: 0.8; stroke-linejoin: miter; stroke-linecap: square"/>
   </g>
   <g id="patch_34">
    <path d="M 135 384.48 
L 381.176471 384.48 
" style="fill: none; stroke: #000000; stroke-width: 0.8; stroke-linejoin: miter; stroke-linecap: square"/>
   </g>
   <g id="text_14">
    <!-- Cleveland Browns -->
    <g transform="translate(191.078079 45.84) scale(0.15 -0.15)">
     <defs>
      <path id="DejaVuSans-6e" d="M 3513 2113 
L 3513 0 
L 2938 0 
L 2938 2094 
Q 2938 2591 2744 2837 
Q 2550 3084 2163 3084 
Q 1697 3084 1428 2787 
Q 1159 2491 1159 1978 
L 1159 0 
L 581 0 
L 581 3500 
L 1159 3500 
L 1159 2956 
Q 1366 3272 1645 3428 
Q 1925 3584 2291 3584 
Q 2894 3584 3203 3211 
Q 3513 2838 3513 2113 
z
" transform="scale(0.015625)"/>
      <path id="DejaVuSans-64" d="M 2906 2969 
L 2906 4863 
L 3481 4863 
L 3481 0 
L 2906 0 
L 2906 525 
Q 2725 213 2448 61 
Q 2172 -91 1784 -91 
Q 1150 -91 751 415 
Q 353 922 353 1747 
Q 353 2572 751 3078 
Q 1150 3584 1784 3584 
Q 2172 3584 2448 3432 
Q 2725 3281 2906 2969 
z
M 947 1747 
Q 947 1113 1208 752 
Q 1469 391 1925 391 
Q 2381 391 2643 752 
Q 2906 1113 2906 1747 
Q 2906 2381 2643 2742 
Q 2381 3103 1925 3103 
Q 1469 3103 1208 2742 
Q 947 2381 947 1747 
z
" transform="scale(0.015625)"/>
      <path id="DejaVuSans-42" d="M 1259 2228 
L 1259 519 
L 2272 519 
Q 2781 519 3026 730 
Q 3272 941 3272 1375 
Q 3272 1813 3026 2020 
Q 2781 2228 2272 2228 
L 1259 2228 
z
M 1259 4147 
L 1259 2741 
L 2194 2741 
Q 2656 2741 2882 2914 
Q 3109 3088 3109 3444 
Q 3109 3797 2882 3972 
Q 2656 4147 2194 4147 
L 1259 4147 
z
M 628 4666 
L 2241 4666 
Q 2963 4666 3353 4366 
Q 3744 4066 3744 3513 
Q 3744 3084 3544 2831 
Q 3344 2578 2956 2516 
Q 3422 2416 3680 2098 
Q 3938 1781 3938 1306 
Q 3938 681 3513 340 
Q 3088 0 2303 0 
L 628 0 
L 628 4666 
z
" transform="scale(0.015625)"/>
      <path id="DejaVuSans-77" d="M 269 3500 
L 844 3500 
L 1563 769 
L 2278 3500 
L 2956 3500 
L 3675 769 
L 4391 3500 
L 4966 3500 
L 4050 0 
L 3372 0 
L 2619 2869 
L 1863 0 
L 1184 0 
L 269 3500 
z
" transform="scale(0.015625)"/>
     </defs>
     <use xlink:href="#DejaVuSans-43"/>
     <use xlink:href="#DejaVuSans-6c" transform="translate(69.824219 0)"/>
     <use xlink:href="#DejaVuSans-65" transform="translate(97.607422 0)"/>
     <use xlink:href="#DejaVuSans-76" transform="translate(159.130859 0)"/>
     <use xlink:href="#DejaVuSans-65" transform="translate(218.310547 0)"/>
     <use xlink:href="#DejaVuSans-6c" transform="translate(279.833984 0)"/>
     <use xlink:href="#DejaVuSans-61" transform="translate(307.617188 0)"/>
     <use xlink:href="#DejaVuSans-6e" transform="translate(368.896484 0)"/>
     <use xlink:href="#DejaVuSans-64" transform="translate(432.275391 0)"/>
     <use xlink:href="#DejaVuSans-20" transform="translate(495.751953 0)"/>
     <use xlink:href="#DejaVuSans-42" transform="translate(527.539062 0)"/>
     <use xlink:href="#DejaVuSans-72" transform="translate(596.142578 0)"/>
     <use xlink:href="#DejaVuSans-6f" transform="translate(635.005859 0)"/>
     <use xlink:href="#DejaVuSans-77" transform="translate(696.1875 0)"/>
     <use xlink:href="#DejaVuSans-6e" transform="translate(777.974609 0)"/>
     <use xlink:href="#DejaVuSans-73" transform="translate(841.353516 0)"/>
    </g>
   </g>
  </g>
  <g id="axes_2">
   <g id="patch_35">
    <path d="M 430.411765 384.48 
L 676.588235 384.48 
L 676.588235 51.84 
L 430.411765 51.84 
z
" style="fill: #ffffff"/>
   </g>
   <g id="patch_36">
    <path d="M 455.029412 384.48 
L 474.723529 384.48 
L 474.723529 336.96 
L 455.029412 336.96 
z
" clip-path="url(#pd481fa0217)" style="fill: #0000ff; stroke: #000000; stroke-width: 0.6; stroke-linejoin: miter"/>
   </g>
   <g id="patch_37">
    <path d="M 504.264706 384.48 
L 523.958824 384.48 
L 523.958824 301.32 
L 504.264706 301.32 
z
" clip-path="url(#pd481fa0217)" style="fill: #0000ff; stroke: #000000; stroke-width: 0.6; stroke-linejoin: miter"/>
   </g>
   <g id="patch_38">
    <path d="M 553.5 384.48 
L 573.194118 384.48 
L 573.194118 276.24 
L 553.5 276.24 
z
" clip-path="url(#pd481fa0217)" style="fill: #0000ff; stroke: #000000; stroke-width: 0.6; stroke-linejoin: miter"/>
   </g>
   <g id="patch_39">
    <path d="M 602.735294 384.48 
L 622.429412 384.48 
L 622.429412 267 
L 602.735294 267 
z
" clip-path="url(#pd481fa0217)" style="fill: #0000ff; stroke: #000000; stroke-width: 0.6; stroke-linejoin: miter"/>
   </g>
   <g id="patch_40">
    <path d="M 651.970588 384.48 
L 671.664706 384.48 
L 671.664706 257.76 
L 651.970588 257.76 
z
" clip-path="url(#pd481fa0217)" style="fill: #0000ff; stroke: #000000; stroke-width: 0.6; stroke-linejoin: miter"/>
   </g>
   <g id="patch_41">
    <path d="M 455.029412 336.96 
L 474.723529 336.96 
L 474.723529 297.36 
L 455.029412 297.36 
z
" clip-path="url(#pd481fa0217)" style="fill: #6495ed; stroke: #000000; stroke-width: 0.6; stroke-linejoin: miter"/>
   </g>
   <g id="patch_42">
    <path d="M 504.264706 301.32 
L 523.958824 301.32 
L 523.958824 210.24 
L 504.264706 210.24 
z
" clip-path="url(#pd481fa0217)" style="fill: #6495ed; stroke: #000000; stroke-width: 0.6; stroke-linejoin: miter"/>
   </g>
   <g id="patch_43">
    <path d="M 553.5 276.24 
L 573.194118 276.24 
L 573.194118 135 
L 553.5 135 
z
" clip-path="url(#pd481fa0217)" style="fill: #6495ed; stroke: #000000; stroke-width: 0.6; stroke-linejoin: miter"/>
   </g>
   <g id="patch_44">
    <path d="M 602.735294 267 
L 622.429412 267 
L 622.429412 94.08 
L 602.735294 94.08 
z
" clip-path="url(#pd481fa0217)" style="fill: #6495ed; stroke: #000000; stroke-width: 0.6; stroke-linejoin: miter"/>
   </g>
   <g id="patch_45">
    <path d="M 651.970588 257.76 
L 671.664706 257.76 
L 671.664706 79.56 
L 651.970588 79.56 
z
" clip-path="url(#pd481fa0217)" style="fill: #6495ed; stroke: #000000; stroke-width: 0.6; stroke-linejoin: miter"/>
   </g>
   <g id="patch_46">
    <path d="M 455.029412 297.36 
L 474.723529 297.36 
L 474.723529 67.68 
L 455.029412 67.68 
z
" clip-path="url(#pd481fa0217)" style="fill: #00bfff; stroke: #000000; stroke-width: 0.6; stroke-linejoin: miter"/>
   </g>
   <g id="patch_47">
    <path d="M 504.264706 210.24 
L 523.958824 210.24 
L 523.958824 67.68 
L 504.264706 67.68 
z
" clip-path="url(#pd481fa0217)" style="fill: #00bfff; stroke: #000000; stroke-width: 0.6; stroke-linejoin: miter"/>
   </g>
   <g id="patch_48">
    <path d="M 553.5 135 
L 573.194118 135 
L 573.194118 67.68 
L 553.5 67.68 
z
" clip-path="url(#pd481fa0217)" style="fill: #00bfff; stroke: #000000; stroke-width: 0.6; stroke-linejoin: miter"/>
   </g>
   <g id="patch_49">
    <path d="M 602.735294 94.08 
L 622.429412 94.08 
L 622.429412 67.68 
L 602.735294 67.68 
z
" clip-path="url(#pd481fa0217)" style="fill: #00bfff; stroke: #000000; stroke-width: 0.6; stroke-linejoin: miter"/>
   </g>
   <g id="patch_50">
    <path d="M 651.970588 79.56 
L 671.664706 79.56 
L 671.664706 67.68 
L 651.970588 67.68 
z
" clip-path="url(#pd481fa0217)" style="fill: #00bfff; stroke: #000000; stroke-width: 0.6; stroke-linejoin: miter"/>
   </g>
   <g id="patch_51">
    <path d="M 455.029412 384.48 
L 435.335294 384.48 
L 435.335294 340.548538 
L 455.029412 340.548538 
z
" clip-path="url(#pd481fa0217)" style="fill: #228b22; stroke: #000000; stroke-opacity: 0.6; stroke-width: 0.6; stroke-linejoin: miter"/>
   </g>
   <g id="patch_52">
    <path d="M 504.264706 384.48 
L 484.570588 384.48 
L 484.570588 301.743553 
L 504.264706 301.743553 
z
" clip-path="url(#pd481fa0217)" style="fill: #228b22; stroke: #000000; stroke-opacity: 0.6; stroke-width: 0.6; stroke-linejoin: miter"/>
   </g>
   <g id="patch_53">
    <path d="M 553.5 384.48 
L 533.805882 384.48 
L 533.805882 278.690247 
L 553.5 278.690247 
z
" clip-path="url(#pd481fa0217)" style="fill: #228b22; stroke: #000000; stroke-opacity: 0.6; stroke-width: 0.6; stroke-linejoin: miter"/>
   </g>
   <g id="patch_54">
    <path d="M 602.735294 384.48 
L 583.041176 384.48 
L 583.041176 264.775687 
L 602.735294 264.775687 
z
" clip-path="url(#pd481fa0217)" style="fill: #228b22; stroke: #000000; stroke-opacity: 0.6; stroke-width: 0.6; stroke-linejoin: miter"/>
   </g>
   <g id="patch_55">
    <path d="M 651.970588 384.48 
L 632.276471 384.48 
L 632.276471 257.55113 
L 651.970588 257.55113 
z
" clip-path="url(#pd481fa0217)" style="fill: #228b22; stroke: #000000; stroke-opacity: 0.6; stroke-width: 0.6; stroke-linejoin: miter"/>
   </g>
   <g id="patch_56">
    <path d="M 455.029412 340.548538 
L 435.335294 340.548538 
L 435.335294 299.487485 
L 455.029412 299.487485 
z
" clip-path="url(#pd481fa0217)" style="fill: #3cb371; stroke: #000000; stroke-opacity: 0.6; stroke-width: 0.6; stroke-linejoin: miter"/>
   </g>
   <g id="patch_57">
    <path d="M 504.264706 301.743553 
L 484.570588 301.743553 
L 484.570588 208.549024 
L 504.264706 208.549024 
z
" clip-path="url(#pd481fa0217)" style="fill: #3cb371; stroke: #000000; stroke-opacity: 0.6; stroke-width: 0.6; stroke-linejoin: miter"/>
   </g>
   <g id="patch_58">
    <path d="M 553.5 278.690247 
L 533.805882 278.690247 
L 533.805882 142.0634 
L 553.5 142.0634 
z
" clip-path="url(#pd481fa0217)" style="fill: #3cb371; stroke: #000000; stroke-opacity: 0.6; stroke-width: 0.6; stroke-linejoin: miter"/>
   </g>
   <g id="patch_59">
    <path d="M 602.735294 264.775687 
L 583.041176 264.775687 
L 583.041176 102.312399 
L 602.735294 102.312399 
z
" clip-path="url(#pd481fa0217)" style="fill: #3cb371; stroke: #000000; stroke-opacity: 0.6; stroke-width: 0.6; stroke-linejoin: miter"/>
   </g>
   <g id="patch_60">
    <path d="M 651.970588 257.55113 
L 632.276471 257.55113 
L 632.276471 85.376392 
L 651.970588 85.376392 
z
" clip-path="url(#pd481fa0217)" style="fill: #3cb371; stroke: #000000; stroke-opacity: 0.6; stroke-width: 0.6; stroke-linejoin: miter"/>
   </g>
   <g id="patch_61">
    <path d="M 455.029412 299.487485 
L 435.335294 299.487485 
L 435.335294 67.68 
L 455.029412 67.68 
z
" clip-path="url(#pd481fa0217)" style="fill: #9acd32; stroke: #000000; stroke-opacity: 0.6; stroke-width: 0.6; stroke-linejoin: miter"/>
   </g>
   <g id="patch_62">
    <path d="M 504.264706 208.549024 
L 484.570588 208.549024 
L 484.570588 67.68 
L 504.264706 67.68 
z
" clip-path="url(#pd481fa0217)" style="fill: #9acd32; stroke: #000000; stroke-opacity: 0.6; stroke-width: 0.6; stroke-linejoin: miter"/>
   </g>
   <g id="patch_63">
    <path d="M 553.5 142.0634 
L 533.805882 142.0634 
L 533.805882 67.68 
L 553.5 67.68 
z
" clip-path="url(#pd481fa0217)" style="fill: #9acd32; stroke: #000000; stroke-opacity: 0.6; stroke-width: 0.6; stroke-linejoin: miter"/>
   </g>
   <g id="patch_64">
    <path d="M 602.735294 102.312399 
L 583.041176 102.312399 
L 583.041176 67.68 
L 602.735294 67.68 
z
" clip-path="url(#pd481fa0217)" style="fill: #9acd32; stroke: #000000; stroke-opacity: 0.6; stroke-width: 0.6; stroke-linejoin: miter"/>
   </g>
   <g id="patch_65">
    <path d="M 651.970588 85.376392 
L 632.276471 85.376392 
L 632.276471 67.68 
L 651.970588 67.68 
z
" clip-path="url(#pd481fa0217)" style="fill: #9acd32; stroke: #000000; stroke-opacity: 0.6; stroke-width: 0.6; stroke-linejoin: miter"/>
   </g>
   <g id="matplotlib.axis_3">
    <g id="xtick_6">
     <g id="line2d_12">
      <g>
       <use xlink:href="#mfbae29473d" x="455.029412" y="384.48" style="stroke: #000000; stroke-width: 0.8"/>
      </g>
     </g>
     <g id="text_15">
      <!-- 2.0 -->
      <g transform="translate(444.692381 401.357969) scale(0.13 -0.13)">
       <use xlink:href="#DejaVuSans-32"/>
       <use xlink:href="#DejaVuSans-2e" transform="translate(63.623047 0)"/>
       <use xlink:href="#DejaVuSans-30" transform="translate(95.410156 0)"/>
      </g>
     </g>
    </g>
    <g id="xtick_7">
     <g id="line2d_13">
      <g>
       <use xlink:href="#mfbae29473d" x="504.264706" y="384.48" style="stroke: #000000; stroke-width: 0.8"/>
      </g>
     </g>
     <g id="text_16">
      <!-- 2.5 -->
      <g transform="translate(493.927675 401.357969) scale(0.13 -0.13)">
       <use xlink:href="#DejaVuSans-32"/>
       <use xlink:href="#DejaVuSans-2e" transform="translate(63.623047 0)"/>
       <use xlink:href="#DejaVuSans-35" transform="translate(95.410156 0)"/>
      </g>
     </g>
    </g>
    <g id="xtick_8">
     <g id="line2d_14">
      <g>
       <use xlink:href="#mfbae29473d" x="553.5" y="384.48" style="stroke: #000000; stroke-width: 0.8"/>
      </g>
     </g>
     <g id="text_17">
      <!-- 3.0 -->
      <g transform="translate(543.162969 401.357969) scale(0.13 -0.13)">
       <use xlink:href="#DejaVuSans-33"/>
       <use xlink:href="#DejaVuSans-2e" transform="translate(63.623047 0)"/>
       <use xlink:href="#DejaVuSans-30" transform="translate(95.410156 0)"/>
      </g>
     </g>
    </g>
    <g id="xtick_9">
     <g id="line2d_15">
      <g>
       <use xlink:href="#mfbae29473d" x="602.735294" y="384.48" style="stroke: #000000; stroke-width: 0.8"/>
      </g>
     </g>
     <g id="text_18">
      <!-- 3.5 -->
      <g transform="translate(592.398263 401.357969) scale(0.13 -0.13)">
       <use xlink:href="#DejaVuSans-33"/>
       <use xlink:href="#DejaVuSans-2e" transform="translate(63.623047 0)"/>
       <use xlink:href="#DejaVuSans-35" transform="translate(95.410156 0)"/>
      </g>
     </g>
    </g>
    <g id="xtick_10">
     <g id="line2d_16">
      <g>
       <use xlink:href="#mfbae29473d" x="651.970588" y="384.48" style="stroke: #000000; stroke-width: 0.8"/>
      </g>
     </g>
     <g id="text_19">
      <!-- 4.0 -->
      <g transform="translate(641.633557 401.357969) scale(0.13 -0.13)">
       <use xlink:href="#DejaVuSans-34"/>
       <use xlink:href="#DejaVuSans-2e" transform="translate(63.623047 0)"/>
       <use xlink:href="#DejaVuSans-30" transform="translate(95.410156 0)"/>
      </g>
     </g>
    </g>
    <g id="text_20">
     <!-- $\tau$[s] -->
     <g transform="translate(541.085 417.939531) scale(0.13 -0.13)">
      <use xlink:href="#DejaVuSans-Oblique-3c4" transform="translate(0 0.015625)"/>
      <use xlink:href="#DejaVuSans-5b" transform="translate(60.205078 0.015625)"/>
      <use xlink:href="#DejaVuSans-73" transform="translate(99.21875 0.015625)"/>
      <use xlink:href="#DejaVuSans-5d" transform="translate(151.318359 0.015625)"/>
     </g>
    </g>
   </g>
   <g id="matplotlib.axis_4">
    <g id="ytick_7">
     <g id="line2d_17">
      <g>
       <use xlink:href="#m6d3e9d4ae3" x="430.411765" y="384.48" style="stroke: #000000; stroke-width: 0.8"/>
      </g>
     </g>
    </g>
    <g id="ytick_8">
     <g id="line2d_18">
      <g>
       <use xlink:href="#m6d3e9d4ae3" x="430.411765" y="321.12" style="stroke: #000000; stroke-width: 0.8"/>
      </g>
     </g>
    </g>
    <g id="ytick_9">
     <g id="line2d_19">
      <g>
       <use xlink:href="#m6d3e9d4ae3" x="430.411765" y="257.76" style="stroke: #000000; stroke-width: 0.8"/>
      </g>
     </g>
    </g>
    <g id="ytick_10">
     <g id="line2d_20">
      <g>
       <use xlink:href="#m6d3e9d4ae3" x="430.411765" y="194.4" style="stroke: #000000; stroke-width: 0.8"/>
      </g>
     </g>
    </g>
    <g id="ytick_11">
     <g id="line2d_21">
      <g>
       <use xlink:href="#m6d3e9d4ae3" x="430.411765" y="131.04" style="stroke: #000000; stroke-width: 0.8"/>
      </g>
     </g>
    </g>
    <g id="ytick_12">
     <g id="line2d_22">
      <g>
       <use xlink:href="#m6d3e9d4ae3" x="430.411765" y="67.68" style="stroke: #000000; stroke-width: 0.8"/>
      </g>
     </g>
    </g>
   </g>
   <g id="patch_66">
    <path d="M 430.411765 384.48 
L 430.411765 51.84 
" style="fill: none; stroke: #000000; stroke-width: 0.8; stroke-linejoin: miter; stroke-linecap: square"/>
   </g>
   <g id="patch_67">
    <path d="M 430.411765 384.48 
L 676.588235 384.48 
" style="fill: none; stroke: #000000; stroke-width: 0.8; stroke-linejoin: miter; stroke-linecap: square"/>
   </g>
   <g id="text_21">
    <!-- Buffalo Bills -->
    <g transform="translate(509.364844 45.84) scale(0.15 -0.15)">
     <defs>
      <path id="DejaVuSans-66" d="M 2375 4863 
L 2375 4384 
L 1825 4384 
Q 1516 4384 1395 4259 
Q 1275 4134 1275 3809 
L 1275 3500 
L 2222 3500 
L 2222 3053 
L 1275 3053 
L 1275 0 
L 697 0 
L 697 3053 
L 147 3053 
L 147 3500 
L 697 3500 
L 697 3744 
Q 697 4328 969 4595 
Q 1241 4863 1831 4863 
L 2375 4863 
z
" transform="scale(0.015625)"/>
     </defs>
     <use xlink:href="#DejaVuSans-42"/>
     <use xlink:href="#DejaVuSans-75" transform="translate(68.603516 0)"/>
     <use xlink:href="#DejaVuSans-66" transform="translate(131.982422 0)"/>
     <use xlink:href="#DejaVuSans-66" transform="translate(167.1875 0)"/>
     <use xlink:href="#DejaVuSans-61" transform="translate(202.392578 0)"/>
     <use xlink:href="#DejaVuSans-6c" transform="translate(263.671875 0)"/>
     <use xlink:href="#DejaVuSans-6f" transform="translate(291.455078 0)"/>
     <use xlink:href="#DejaVuSans-20" transform="translate(352.636719 0)"/>
     <use xlink:href="#DejaVuSans-42" transform="translate(384.423828 0)"/>
     <use xlink:href="#DejaVuSans-69" transform="translate(453.027344 0)"/>
     <use xlink:href="#DejaVuSans-6c" transform="translate(480.810547 0)"/>
     <use xlink:href="#DejaVuSans-6c" transform="translate(508.59375 0)"/>
     <use xlink:href="#DejaVuSans-73" transform="translate(536.376953 0)"/>
    </g>
   </g>
   <g id="legend_1">
    <g id="patch_68">
     <path d="M 321.120938 482.939125 
L 785.879063 482.939125 
Q 788.479063 482.939125 788.479063 480.339125 
L 788.479063 443.476 
Q 788.479063 440.876 785.879063 440.876 
L 321.120938 440.876 
Q 318.520938 440.876 318.520938 443.476 
L 318.520938 480.339125 
Q 318.520938 482.939125 321.120938 482.939125 
z
" style="fill: #ffffff; opacity: 0.8; stroke: #cccccc; stroke-linejoin: miter"/>
    </g>
    <g id="line2d_23"/>
    <g id="text_22">
     <!-- Expected: -->
     <g transform="translate(360.120937 455.953969) scale(0.13 -0.13)">
      <defs>
       <path id="DejaVuSans-45" d="M 628 4666 
L 3578 4666 
L 3578 4134 
L 1259 4134 
L 1259 2753 
L 3481 2753 
L 3481 2222 
L 1259 2222 
L 1259 531 
L 3634 531 
L 3634 0 
L 628 0 
L 628 4666 
z
" transform="scale(0.015625)"/>
       <path id="DejaVuSans-78" d="M 3513 3500 
L 2247 1797 
L 3578 0 
L 2900 0 
L 1881 1375 
L 863 0 
L 184 0 
L 1544 1831 
L 300 3500 
L 978 3500 
L 1906 2253 
L 2834 3500 
L 3513 3500 
z
" transform="scale(0.015625)"/>
       <path id="DejaVuSans-3a" d="M 750 794 
L 1409 794 
L 1409 0 
L 750 0 
L 750 794 
z
M 750 3309 
L 1409 3309 
L 1409 2516 
L 750 2516 
L 750 3309 
z
" transform="scale(0.015625)"/>
      </defs>
      <use xlink:href="#DejaVuSans-45"/>
      <use xlink:href="#DejaVuSans-78" transform="translate(63.183594 0)"/>
      <use xlink:href="#DejaVuSans-70" transform="translate(122.363281 0)"/>
      <use xlink:href="#DejaVuSans-65" transform="translate(185.839844 0)"/>
      <use xlink:href="#DejaVuSans-63" transform="translate(247.363281 0)"/>
      <use xlink:href="#DejaVuSans-74" transform="translate(302.34375 0)"/>
      <use xlink:href="#DejaVuSans-65" transform="translate(341.552734 0)"/>
      <use xlink:href="#DejaVuSans-64" transform="translate(403.076172 0)"/>
      <use xlink:href="#DejaVuSans-3a" transform="translate(466.552734 0)"/>
     </g>
    </g>
    <g id="line2d_24"/>
    <g id="text_23">
     <!-- Observed: -->
     <g transform="translate(360.120937 475.035531) scale(0.13 -0.13)">
      <defs>
       <path id="DejaVuSans-4f" d="M 2522 4238 
Q 1834 4238 1429 3725 
Q 1025 3213 1025 2328 
Q 1025 1447 1429 934 
Q 1834 422 2522 422 
Q 3209 422 3611 934 
Q 4013 1447 4013 2328 
Q 4013 3213 3611 3725 
Q 3209 4238 2522 4238 
z
M 2522 4750 
Q 3503 4750 4090 4092 
Q 4678 3434 4678 2328 
Q 4678 1225 4090 567 
Q 3503 -91 2522 -91 
Q 1538 -91 948 565 
Q 359 1222 359 2328 
Q 359 3434 948 4092 
Q 1538 4750 2522 4750 
z
" transform="scale(0.015625)"/>
       <path id="DejaVuSans-62" d="M 3116 1747 
Q 3116 2381 2855 2742 
Q 2594 3103 2138 3103 
Q 1681 3103 1420 2742 
Q 1159 2381 1159 1747 
Q 1159 1113 1420 752 
Q 1681 391 2138 391 
Q 2594 391 2855 752 
Q 3116 1113 3116 1747 
z
M 1159 2969 
Q 1341 3281 1617 3432 
Q 1894 3584 2278 3584 
Q 2916 3584 3314 3078 
Q 3713 2572 3713 1747 
Q 3713 922 3314 415 
Q 2916 -91 2278 -91 
Q 1894 -91 1617 61 
Q 1341 213 1159 525 
L 1159 0 
L 581 0 
L 581 4863 
L 1159 4863 
L 1159 2969 
z
" transform="scale(0.015625)"/>
      </defs>
      <use xlink:href="#DejaVuSans-4f"/>
      <use xlink:href="#DejaVuSans-62" transform="translate(78.710938 0)"/>
      <use xlink:href="#DejaVuSans-73" transform="translate(142.1875 0)"/>
      <use xlink:href="#DejaVuSans-65" transform="translate(194.287109 0)"/>
      <use xlink:href="#DejaVuSans-72" transform="translate(255.810547 0)"/>
      <use xlink:href="#DejaVuSans-76" transform="translate(296.923828 0)"/>
      <use xlink:href="#DejaVuSans-65" transform="translate(356.103516 0)"/>
      <use xlink:href="#DejaVuSans-64" transform="translate(417.626953 0)"/>
      <use xlink:href="#DejaVuSans-3a" transform="translate(481.103516 0)"/>
     </g>
    </g>
    <g id="patch_69">
     <path d="M 453.048594 455.953969 
L 479.048594 455.953969 
L 479.048594 446.853969 
L 453.048594 446.853969 
z
" style="fill: #228b22; stroke: #000000; stroke-opacity: 0.6; stroke-width: 0.6; stroke-linejoin: miter"/>
    </g>
    <g id="text_24">
     <!-- Collapse -->
     <g transform="translate(489.448594 455.953969) scale(0.13 -0.13)">
      <use xlink:href="#DejaVuSans-43"/>
      <use xlink:href="#DejaVuSans-6f" transform="translate(69.824219 0)"/>
      <use xlink:href="#DejaVuSans-6c" transform="translate(131.005859 0)"/>
      <use xlink:href="#DejaVuSans-6c" transform="translate(158.789062 0)"/>
      <use xlink:href="#DejaVuSans-61" transform="translate(186.572266 0)"/>
      <use xlink:href="#DejaVuSans-70" transform="translate(247.851562 0)"/>
      <use xlink:href="#DejaVuSans-73" transform="translate(311.328125 0)"/>
      <use xlink:href="#DejaVuSans-65" transform="translate(363.427734 0)"/>
     </g>
    </g>
    <g id="patch_70">
     <path d="M 453.048594 475.035531 
L 479.048594 475.035531 
L 479.048594 465.935531 
L 453.048594 465.935531 
z
" style="fill: #0000ff; stroke: #000000; stroke-width: 0.6; stroke-linejoin: miter"/>
    </g>
    <g id="text_25">
     <!-- Collapse -->
     <g transform="translate(489.448594 475.035531) scale(0.13 -0.13)">
      <use xlink:href="#DejaVuSans-43"/>
      <use xlink:href="#DejaVuSans-6f" transform="translate(69.824219 0)"/>
      <use xlink:href="#DejaVuSans-6c" transform="translate(131.005859 0)"/>
      <use xlink:href="#DejaVuSans-6c" transform="translate(158.789062 0)"/>
      <use xlink:href="#DejaVuSans-61" transform="translate(186.572266 0)"/>
      <use xlink:href="#DejaVuSans-70" transform="translate(247.851562 0)"/>
      <use xlink:href="#DejaVuSans-73" transform="translate(311.328125 0)"/>
      <use xlink:href="#DejaVuSans-65" transform="translate(363.427734 0)"/>
     </g>
    </g>
    <g id="patch_71">
     <path d="M 570.694531 455.953969 
L 596.694531 455.953969 
L 596.694531 446.853969 
L 570.694531 446.853969 
z
" style="fill: #3cb371; stroke: #000000; stroke-opacity: 0.6; stroke-width: 0.6; stroke-linejoin: miter"/>
    </g>
    <g id="text_26">
     <!-- Pass -->
     <g transform="translate(607.094531 455.953969) scale(0.13 -0.13)">
      <defs>
       <path id="DejaVuSans-50" d="M 1259 4147 
L 1259 2394 
L 2053 2394 
Q 2494 2394 2734 2622 
Q 2975 2850 2975 3272 
Q 2975 3691 2734 3919 
Q 2494 4147 2053 4147 
L 1259 4147 
z
M 628 4666 
L 2053 4666 
Q 2838 4666 3239 4311 
Q 3641 3956 3641 3272 
Q 3641 2581 3239 2228 
Q 2838 1875 2053 1875 
L 1259 1875 
L 1259 0 
L 628 0 
L 628 4666 
z
" transform="scale(0.015625)"/>
      </defs>
      <use xlink:href="#DejaVuSans-50"/>
      <use xlink:href="#DejaVuSans-61" transform="translate(55.802734 0)"/>
      <use xlink:href="#DejaVuSans-73" transform="translate(117.082031 0)"/>
      <use xlink:href="#DejaVuSans-73" transform="translate(169.181641 0)"/>
     </g>
    </g>
    <g id="patch_72">
     <path d="M 570.694531 475.035531 
L 596.694531 475.035531 
L 596.694531 465.935531 
L 570.694531 465.935531 
z
" style="fill: #6495ed; stroke: #000000; stroke-width: 0.6; stroke-linejoin: miter"/>
    </g>
    <g id="text_27">
     <!-- Pass -->
     <g transform="translate(607.094531 475.035531) scale(0.13 -0.13)">
      <use xlink:href="#DejaVuSans-50"/>
      <use xlink:href="#DejaVuSans-61" transform="translate(55.802734 0)"/>
      <use xlink:href="#DejaVuSans-73" transform="translate(117.082031 0)"/>
      <use xlink:href="#DejaVuSans-73" transform="translate(169.181641 0)"/>
     </g>
    </g>
    <g id="patch_73">
     <path d="M 661.859062 455.953969 
L 687.859062 455.953969 
L 687.859062 446.853969 
L 661.859062 446.853969 
z
" style="fill: #9acd32; stroke: #000000; stroke-opacity: 0.6; stroke-width: 0.6; stroke-linejoin: miter"/>
    </g>
    <g id="text_28">
     <!-- Intact pocket -->
     <g transform="translate(698.259062 455.953969) scale(0.13 -0.13)">
      <defs>
       <path id="DejaVuSans-49" d="M 628 4666 
L 1259 4666 
L 1259 0 
L 628 0 
L 628 4666 
z
" transform="scale(0.015625)"/>
      </defs>
      <use xlink:href="#DejaVuSans-49"/>
      <use xlink:href="#DejaVuSans-6e" transform="translate(29.492188 0)"/>
      <use xlink:href="#DejaVuSans-74" transform="translate(92.871094 0)"/>
      <use xlink:href="#DejaVuSans-61" transform="translate(132.080078 0)"/>
      <use xlink:href="#DejaVuSans-63" transform="translate(193.359375 0)"/>
      <use xlink:href="#DejaVuSans-74" transform="translate(248.339844 0)"/>
      <use xlink:href="#DejaVuSans-20" transform="translate(287.548828 0)"/>
      <use xlink:href="#DejaVuSans-70" transform="translate(319.335938 0)"/>
      <use xlink:href="#DejaVuSans-6f" transform="translate(382.8125 0)"/>
      <use xlink:href="#DejaVuSans-63" transform="translate(443.994141 0)"/>
      <use xlink:href="#DejaVuSans-6b" transform="translate(498.974609 0)"/>
      <use xlink:href="#DejaVuSans-65" transform="translate(553.259766 0)"/>
      <use xlink:href="#DejaVuSans-74" transform="translate(614.783203 0)"/>
     </g>
    </g>
    <g id="patch_74">
     <path d="M 661.859062 475.035531 
L 687.859062 475.035531 
L 687.859062 465.935531 
L 661.859062 465.935531 
z
" style="fill: #00bfff; stroke: #000000; stroke-width: 0.6; stroke-linejoin: miter"/>
    </g>
    <g id="text_29">
     <!-- Intact pocket -->
     <g transform="translate(698.259062 475.035531) scale(0.13 -0.13)">
      <use xlink:href="#DejaVuSans-49"/>
      <use xlink:href="#DejaVuSans-6e" transform="translate(29.492188 0)"/>
      <use xlink:href="#DejaVuSans-74" transform="translate(92.871094 0)"/>
      <use xlink:href="#DejaVuSans-61" transform="translate(132.080078 0)"/>
      <use xlink:href="#DejaVuSans-63" transform="translate(193.359375 0)"/>
      <use xlink:href="#DejaVuSans-74" transform="translate(248.339844 0)"/>
      <use xlink:href="#DejaVuSans-20" transform="translate(287.548828 0)"/>
      <use xlink:href="#DejaVuSans-70" transform="translate(319.335938 0)"/>
      <use xlink:href="#DejaVuSans-6f" transform="translate(382.8125 0)"/>
      <use xlink:href="#DejaVuSans-63" transform="translate(443.994141 0)"/>
      <use xlink:href="#DejaVuSans-6b" transform="translate(498.974609 0)"/>
      <use xlink:href="#DejaVuSans-65" transform="translate(553.259766 0)"/>
      <use xlink:href="#DejaVuSans-74" transform="translate(614.783203 0)"/>
     </g>
    </g>
   </g>
  </g>
  <g id="axes_3">
   <g id="patch_75">
    <path d="M 725.823529 384.48 
L 972 384.48 
L 972 51.84 
L 725.823529 51.84 
z
" style="fill: #ffffff"/>
   </g>
   <g id="patch_76">
    <path d="M 750.441176 384.48 
L 770.135294 384.48 
L 770.135294 357.325714 
L 750.441176 357.325714 
z
" clip-path="url(#p3b9ed14bb0)" style="fill: #0000ff; stroke: #000000; stroke-width: 0.6; stroke-linejoin: miter"/>
   </g>
   <g id="patch_77">
    <path d="M 799.676471 384.48 
L 819.370588 384.48 
L 819.370588 332.757551 
L 799.676471 332.757551 
z
" clip-path="url(#p3b9ed14bb0)" style="fill: #0000ff; stroke: #000000; stroke-width: 0.6; stroke-linejoin: miter"/>
   </g>
   <g id="patch_78">
    <path d="M 848.911765 384.48 
L 868.605882 384.48 
L 868.605882 308.189388 
L 848.911765 308.189388 
z
" clip-path="url(#p3b9ed14bb0)" style="fill: #0000ff; stroke: #000000; stroke-width: 0.6; stroke-linejoin: miter"/>
   </g>
   <g id="patch_79">
    <path d="M 898.147059 384.48 
L 917.841176 384.48 
L 917.841176 291.379592 
L 898.147059 291.379592 
z
" clip-path="url(#p3b9ed14bb0)" style="fill: #0000ff; stroke: #000000; stroke-width: 0.6; stroke-linejoin: miter"/>
   </g>
   <g id="patch_80">
    <path d="M 947.382353 384.48 
L 967.076471 384.48 
L 967.076471 281.035102 
L 947.382353 281.035102 
z
" clip-path="url(#p3b9ed14bb0)" style="fill: #0000ff; stroke: #000000; stroke-width: 0.6; stroke-linejoin: miter"/>
   </g>
   <g id="patch_81">
    <path d="M 750.441176 357.325714 
L 770.135294 357.325714 
L 770.135294 300.43102 
L 750.441176 300.43102 
z
" clip-path="url(#p3b9ed14bb0)" style="fill: #6495ed; stroke: #000000; stroke-width: 0.6; stroke-linejoin: miter"/>
   </g>
   <g id="patch_82">
    <path d="M 799.676471 332.757551 
L 819.370588 332.757551 
L 819.370588 213.795918 
L 799.676471 213.795918 
z
" clip-path="url(#p3b9ed14bb0)" style="fill: #6495ed; stroke: #000000; stroke-width: 0.6; stroke-linejoin: miter"/>
   </g>
   <g id="patch_83">
    <path d="M 848.911765 308.189388 
L 868.605882 308.189388 
L 868.605882 137.505306 
L 848.911765 137.505306 
z
" clip-path="url(#p3b9ed14bb0)" style="fill: #6495ed; stroke: #000000; stroke-width: 0.6; stroke-linejoin: miter"/>
   </g>
   <g id="patch_84">
    <path d="M 898.147059 291.379592 
L 917.841176 291.379592 
L 917.841176 93.541224 
L 898.147059 93.541224 
z
" clip-path="url(#p3b9ed14bb0)" style="fill: #6495ed; stroke: #000000; stroke-width: 0.6; stroke-linejoin: miter"/>
   </g>
   <g id="patch_85">
    <path d="M 947.382353 281.035102 
L 967.076471 281.035102 
L 967.076471 76.731429 
L 947.382353 76.731429 
z
" clip-path="url(#p3b9ed14bb0)" style="fill: #6495ed; stroke: #000000; stroke-width: 0.6; stroke-linejoin: miter"/>
   </g>
   <g id="patch_86">
    <path d="M 750.441176 300.43102 
L 770.135294 300.43102 
L 770.135294 67.68 
L 750.441176 67.68 
z
" clip-path="url(#p3b9ed14bb0)" style="fill: #00bfff; stroke: #000000; stroke-width: 0.6; stroke-linejoin: miter"/>
   </g>
   <g id="patch_87">
    <path d="M 799.676471 213.795918 
L 819.370588 213.795918 
L 819.370588 67.68 
L 799.676471 67.68 
z
" clip-path="url(#p3b9ed14bb0)" style="fill: #00bfff; stroke: #000000; stroke-width: 0.6; stroke-linejoin: miter"/>
   </g>
   <g id="patch_88">
    <path d="M 848.911765 137.505306 
L 868.605882 137.505306 
L 868.605882 67.68 
L 848.911765 67.68 
z
" clip-path="url(#p3b9ed14bb0)" style="fill: #00bfff; stroke: #000000; stroke-width: 0.6; stroke-linejoin: miter"/>
   </g>
   <g id="patch_89">
    <path d="M 898.147059 93.541224 
L 917.841176 93.541224 
L 917.841176 67.68 
L 898.147059 67.68 
z
" clip-path="url(#p3b9ed14bb0)" style="fill: #00bfff; stroke: #000000; stroke-width: 0.6; stroke-linejoin: miter"/>
   </g>
   <g id="patch_90">
    <path d="M 947.382353 76.731429 
L 967.076471 76.731429 
L 967.076471 67.68 
L 947.382353 67.68 
z
" clip-path="url(#p3b9ed14bb0)" style="fill: #00bfff; stroke: #000000; stroke-width: 0.6; stroke-linejoin: miter"/>
   </g>
   <g id="patch_91">
    <path d="M 750.441176 384.48 
L 730.747059 384.48 
L 730.747059 351.251786 
L 750.441176 351.251786 
z
" clip-path="url(#p3b9ed14bb0)" style="fill: #228b22; stroke: #000000; stroke-opacity: 0.6; stroke-width: 0.6; stroke-linejoin: miter"/>
   </g>
   <g id="patch_92">
    <path d="M 799.676471 384.48 
L 779.982353 384.48 
L 779.982353 318.352403 
L 799.676471 318.352403 
z
" clip-path="url(#p3b9ed14bb0)" style="fill: #228b22; stroke: #000000; stroke-opacity: 0.6; stroke-width: 0.6; stroke-linejoin: miter"/>
   </g>
   <g id="patch_93">
    <path d="M 848.911765 384.48 
L 829.217647 384.48 
L 829.217647 297.508976 
L 848.911765 297.508976 
z
" clip-path="url(#p3b9ed14bb0)" style="fill: #228b22; stroke: #000000; stroke-opacity: 0.6; stroke-width: 0.6; stroke-linejoin: miter"/>
   </g>
   <g id="patch_94">
    <path d="M 898.147059 384.48 
L 878.452941 384.48 
L 878.452941 284.338671 
L 898.147059 284.338671 
z
" clip-path="url(#p3b9ed14bb0)" style="fill: #228b22; stroke: #000000; stroke-opacity: 0.6; stroke-width: 0.6; stroke-linejoin: miter"/>
   </g>
   <g id="patch_95">
    <path d="M 947.382353 384.48 
L 927.688235 384.48 
L 927.688235 277.162039 
L 947.382353 277.162039 
z
" clip-path="url(#p3b9ed14bb0)" style="fill: #228b22; stroke: #000000; stroke-opacity: 0.6; stroke-width: 0.6; stroke-linejoin: miter"/>
   </g>
   <g id="patch_96">
    <path d="M 750.441176 351.251786 
L 730.747059 351.251786 
L 730.747059 302.414055 
L 750.441176 302.414055 
z
" clip-path="url(#p3b9ed14bb0)" style="fill: #3cb371; stroke: #000000; stroke-opacity: 0.6; stroke-width: 0.6; stroke-linejoin: miter"/>
   </g>
   <g id="patch_97">
    <path d="M 799.676471 318.352403 
L 779.982353 318.352403 
L 779.982353 210.361372 
L 799.676471 210.361372 
z
" clip-path="url(#p3b9ed14bb0)" style="fill: #3cb371; stroke: #000000; stroke-opacity: 0.6; stroke-width: 0.6; stroke-linejoin: miter"/>
   </g>
   <g id="patch_98">
    <path d="M 848.911765 297.508976 
L 829.217647 297.508976 
L 829.217647 142.921262 
L 848.911765 142.921262 
z
" clip-path="url(#p3b9ed14bb0)" style="fill: #3cb371; stroke: #000000; stroke-opacity: 0.6; stroke-width: 0.6; stroke-linejoin: miter"/>
   </g>
   <g id="patch_99">
    <path d="M 898.147059 284.338671 
L 878.452941 284.338671 
L 878.452941 103.229627 
L 898.147059 103.229627 
z
" clip-path="url(#p3b9ed14bb0)" style="fill: #3cb371; stroke: #000000; stroke-opacity: 0.6; stroke-width: 0.6; stroke-linejoin: miter"/>
   </g>
   <g id="patch_100">
    <path d="M 947.382353 277.162039 
L 927.688235 277.162039 
L 927.688235 86.272164 
L 947.382353 86.272164 
z
" clip-path="url(#p3b9ed14bb0)" style="fill: #3cb371; stroke: #000000; stroke-opacity: 0.6; stroke-width: 0.6; stroke-linejoin: miter"/>
   </g>
   <g id="patch_101">
    <path d="M 750.441176 302.414055 
L 730.747059 302.414055 
L 730.747059 67.68 
L 750.441176 67.68 
z
" clip-path="url(#p3b9ed14bb0)" style="fill: #9acd32; stroke: #000000; stroke-opacity: 0.6; stroke-width: 0.6; stroke-linejoin: miter"/>
   </g>
   <g id="patch_102">
    <path d="M 799.676471 210.361372 
L 779.982353 210.361372 
L 779.982353 67.68 
L 799.676471 67.68 
z
" clip-path="url(#p3b9ed14bb0)" style="fill: #9acd32; stroke: #000000; stroke-opacity: 0.6; stroke-width: 0.6; stroke-linejoin: miter"/>
   </g>
   <g id="patch_103">
    <path d="M 848.911765 142.921262 
L 829.217647 142.921262 
L 829.217647 67.68 
L 848.911765 67.68 
z
" clip-path="url(#p3b9ed14bb0)" style="fill: #9acd32; stroke: #000000; stroke-opacity: 0.6; stroke-width: 0.6; stroke-linejoin: miter"/>
   </g>
   <g id="patch_104">
    <path d="M 898.147059 103.229627 
L 878.452941 103.229627 
L 878.452941 67.68 
L 898.147059 67.68 
z
" clip-path="url(#p3b9ed14bb0)" style="fill: #9acd32; stroke: #000000; stroke-opacity: 0.6; stroke-width: 0.6; stroke-linejoin: miter"/>
   </g>
   <g id="patch_105">
    <path d="M 947.382353 86.272164 
L 927.688235 86.272164 
L 927.688235 67.68 
L 947.382353 67.68 
z
" clip-path="url(#p3b9ed14bb0)" style="fill: #9acd32; stroke: #000000; stroke-opacity: 0.6; stroke-width: 0.6; stroke-linejoin: miter"/>
   </g>
   <g id="matplotlib.axis_5">
    <g id="xtick_11">
     <g id="line2d_25">
      <g>
       <use xlink:href="#mfbae29473d" x="750.441176" y="384.48" style="stroke: #000000; stroke-width: 0.8"/>
      </g>
     </g>
     <g id="text_30">
      <!-- 2.0 -->
      <g transform="translate(740.104145 401.357969) scale(0.13 -0.13)">
       <use xlink:href="#DejaVuSans-32"/>
       <use xlink:href="#DejaVuSans-2e" transform="translate(63.623047 0)"/>
       <use xlink:href="#DejaVuSans-30" transform="translate(95.410156 0)"/>
      </g>
     </g>
    </g>
    <g id="xtick_12">
     <g id="line2d_26">
      <g>
       <use xlink:href="#mfbae29473d" x="799.676471" y="384.48" style="stroke: #000000; stroke-width: 0.8"/>
      </g>
     </g>
     <g id="text_31">
      <!-- 2.5 -->
      <g transform="translate(789.339439 401.357969) scale(0.13 -0.13)">
       <use xlink:href="#DejaVuSans-32"/>
       <use xlink:href="#DejaVuSans-2e" transform="translate(63.623047 0)"/>
       <use xlink:href="#DejaVuSans-35" transform="translate(95.410156 0)"/>
      </g>
     </g>
    </g>
    <g id="xtick_13">
     <g id="line2d_27">
      <g>
       <use xlink:href="#mfbae29473d" x="848.911765" y="384.48" style="stroke: #000000; stroke-width: 0.8"/>
      </g>
     </g>
     <g id="text_32">
      <!-- 3.0 -->
      <g transform="translate(838.574733 401.357969) scale(0.13 -0.13)">
       <use xlink:href="#DejaVuSans-33"/>
       <use xlink:href="#DejaVuSans-2e" transform="translate(63.623047 0)"/>
       <use xlink:href="#DejaVuSans-30" transform="translate(95.410156 0)"/>
      </g>
     </g>
    </g>
    <g id="xtick_14">
     <g id="line2d_28">
      <g>
       <use xlink:href="#mfbae29473d" x="898.147059" y="384.48" style="stroke: #000000; stroke-width: 0.8"/>
      </g>
     </g>
     <g id="text_33">
      <!-- 3.5 -->
      <g transform="translate(887.810028 401.357969) scale(0.13 -0.13)">
       <use xlink:href="#DejaVuSans-33"/>
       <use xlink:href="#DejaVuSans-2e" transform="translate(63.623047 0)"/>
       <use xlink:href="#DejaVuSans-35" transform="translate(95.410156 0)"/>
      </g>
     </g>
    </g>
    <g id="xtick_15">
     <g id="line2d_29">
      <g>
       <use xlink:href="#mfbae29473d" x="947.382353" y="384.48" style="stroke: #000000; stroke-width: 0.8"/>
      </g>
     </g>
     <g id="text_34">
      <!-- 4.0 -->
      <g transform="translate(937.045322 401.357969) scale(0.13 -0.13)">
       <use xlink:href="#DejaVuSans-34"/>
       <use xlink:href="#DejaVuSans-2e" transform="translate(63.623047 0)"/>
       <use xlink:href="#DejaVuSans-30" transform="translate(95.410156 0)"/>
      </g>
     </g>
    </g>
    <g id="text_35">
     <!-- $\tau$[s] -->
     <g transform="translate(836.496765 417.939531) scale(0.13 -0.13)">
      <use xlink:href="#DejaVuSans-Oblique-3c4" transform="translate(0 0.015625)"/>
      <use xlink:href="#DejaVuSans-5b" transform="translate(60.205078 0.015625)"/>
      <use xlink:href="#DejaVuSans-73" transform="translate(99.21875 0.015625)"/>
      <use xlink:href="#DejaVuSans-5d" transform="translate(151.318359 0.015625)"/>
     </g>
    </g>
   </g>
   <g id="matplotlib.axis_6">
    <g id="ytick_13">
     <g id="line2d_30">
      <g>
       <use xlink:href="#m6d3e9d4ae3" x="725.823529" y="384.48" style="stroke: #000000; stroke-width: 0.8"/>
      </g>
     </g>
    </g>
    <g id="ytick_14">
     <g id="line2d_31">
      <g>
       <use xlink:href="#m6d3e9d4ae3" x="725.823529" y="321.12" style="stroke: #000000; stroke-width: 0.8"/>
      </g>
     </g>
    </g>
    <g id="ytick_15">
     <g id="line2d_32">
      <g>
       <use xlink:href="#m6d3e9d4ae3" x="725.823529" y="257.76" style="stroke: #000000; stroke-width: 0.8"/>
      </g>
     </g>
    </g>
    <g id="ytick_16">
     <g id="line2d_33">
      <g>
       <use xlink:href="#m6d3e9d4ae3" x="725.823529" y="194.4" style="stroke: #000000; stroke-width: 0.8"/>
      </g>
     </g>
    </g>
    <g id="ytick_17">
     <g id="line2d_34">
      <g>
       <use xlink:href="#m6d3e9d4ae3" x="725.823529" y="131.04" style="stroke: #000000; stroke-width: 0.8"/>
      </g>
     </g>
    </g>
    <g id="ytick_18">
     <g id="line2d_35">
      <g>
       <use xlink:href="#m6d3e9d4ae3" x="725.823529" y="67.68" style="stroke: #000000; stroke-width: 0.8"/>
      </g>
     </g>
    </g>
   </g>
   <g id="patch_106">
    <path d="M 725.823529 384.48 
L 725.823529 51.84 
" style="fill: none; stroke: #000000; stroke-width: 0.8; stroke-linejoin: miter; stroke-linecap: square"/>
   </g>
   <g id="patch_107">
    <path d="M 725.823529 384.48 
L 972 384.48 
" style="fill: none; stroke: #000000; stroke-width: 0.8; stroke-linejoin: miter; stroke-linecap: square"/>
   </g>
   <g id="text_36">
    <!-- Arizona Cardinals -->
    <g transform="translate(783.386374 45.84) scale(0.15 -0.15)">
     <defs>
      <path id="DejaVuSans-41" d="M 2188 4044 
L 1331 1722 
L 3047 1722 
L 2188 4044 
z
M 1831 4666 
L 2547 4666 
L 4325 0 
L 3669 0 
L 3244 1197 
L 1141 1197 
L 716 0 
L 50 0 
L 1831 4666 
z
" transform="scale(0.015625)"/>
      <path id="DejaVuSans-7a" d="M 353 3500 
L 3084 3500 
L 3084 2975 
L 922 459 
L 3084 459 
L 3084 0 
L 275 0 
L 275 525 
L 2438 3041 
L 353 3041 
L 353 3500 
z
" transform="scale(0.015625)"/>
     </defs>
     <use xlink:href="#DejaVuSans-41"/>
     <use xlink:href="#DejaVuSans-72" transform="translate(68.408203 0)"/>
     <use xlink:href="#DejaVuSans-69" transform="translate(109.521484 0)"/>
     <use xlink:href="#DejaVuSans-7a" transform="translate(137.304688 0)"/>
     <use xlink:href="#DejaVuSans-6f" transform="translate(189.794922 0)"/>
     <use xlink:href="#DejaVuSans-6e" transform="translate(250.976562 0)"/>
     <use xlink:href="#DejaVuSans-61" transform="translate(314.355469 0)"/>
     <use xlink:href="#DejaVuSans-20" transform="translate(375.634766 0)"/>
     <use xlink:href="#DejaVuSans-43" transform="translate(407.421875 0)"/>
     <use xlink:href="#DejaVuSans-61" transform="translate(477.246094 0)"/>
     <use xlink:href="#DejaVuSans-72" transform="translate(538.525391 0)"/>
     <use xlink:href="#DejaVuSans-64" transform="translate(577.888672 0)"/>
     <use xlink:href="#DejaVuSans-69" transform="translate(641.365234 0)"/>
     <use xlink:href="#DejaVuSans-6e" transform="translate(669.148438 0)"/>
     <use xlink:href="#DejaVuSans-61" transform="translate(732.527344 0)"/>
     <use xlink:href="#DejaVuSans-6c" transform="translate(793.806641 0)"/>
     <use xlink:href="#DejaVuSans-73" transform="translate(821.589844 0)"/>
    </g>
   </g>
  </g>
  <g id="text_37">
   <!-- Defensive Impact of Browns, Bills and Cardinals Pass Rush -->
   <g transform="translate(277.472813 22.317187) scale(0.18 -0.18)">
    <defs>
     <path id="DejaVuSans-44" d="M 1259 4147 
L 1259 519 
L 2022 519 
Q 2988 519 3436 956 
Q 3884 1394 3884 2338 
Q 3884 3275 3436 3711 
Q 2988 4147 2022 4147 
L 1259 4147 
z
M 628 4666 
L 1925 4666 
Q 3281 4666 3915 4102 
Q 4550 3538 4550 2338 
Q 4550 1131 3912 565 
Q 3275 0 1925 0 
L 628 0 
L 628 4666 
z
" transform="scale(0.015625)"/>
     <path id="DejaVuSans-2c" d="M 750 794 
L 1409 794 
L 1409 256 
L 897 -744 
L 494 -744 
L 750 256 
L 750 794 
z
" transform="scale(0.015625)"/>
     <path id="DejaVuSans-52" d="M 2841 2188 
Q 3044 2119 3236 1894 
Q 3428 1669 3622 1275 
L 4263 0 
L 3584 0 
L 2988 1197 
Q 2756 1666 2539 1819 
Q 2322 1972 1947 1972 
L 1259 1972 
L 1259 0 
L 628 0 
L 628 4666 
L 2053 4666 
Q 2853 4666 3247 4331 
Q 3641 3997 3641 3322 
Q 3641 2881 3436 2590 
Q 3231 2300 2841 2188 
z
M 1259 4147 
L 1259 2491 
L 2053 2491 
Q 2509 2491 2742 2702 
Q 2975 2913 2975 3322 
Q 2975 3731 2742 3939 
Q 2509 4147 2053 4147 
L 1259 4147 
z
" transform="scale(0.015625)"/>
     <path id="DejaVuSans-68" d="M 3513 2113 
L 3513 0 
L 2938 0 
L 2938 2094 
Q 2938 2591 2744 2837 
Q 2550 3084 2163 3084 
Q 1697 3084 1428 2787 
Q 1159 2491 1159 1978 
L 1159 0 
L 581 0 
L 581 4863 
L 1159 4863 
L 1159 2956 
Q 1366 3272 1645 3428 
Q 1925 3584 2291 3584 
Q 2894 3584 3203 3211 
Q 3513 2838 3513 2113 
z
" transform="scale(0.015625)"/>
    </defs>
    <use xlink:href="#DejaVuSans-44"/>
    <use xlink:href="#DejaVuSans-65" transform="translate(77.001953 0)"/>
    <use xlink:href="#DejaVuSans-66" transform="translate(138.525391 0)"/>
    <use xlink:href="#DejaVuSans-65" transform="translate(173.730469 0)"/>
    <use xlink:href="#DejaVuSans-6e" transform="translate(235.253906 0)"/>
    <use xlink:href="#DejaVuSans-73" transform="translate(298.632812 0)"/>
    <use xlink:href="#DejaVuSans-69" transform="translate(350.732422 0)"/>
    <use xlink:href="#DejaVuSans-76" transform="translate(378.515625 0)"/>
    <use xlink:href="#DejaVuSans-65" transform="translate(437.695312 0)"/>
    <use xlink:href="#DejaVuSans-20" transform="translate(499.21875 0)"/>
    <use xlink:href="#DejaVuSans-49" transform="translate(531.005859 0)"/>
    <use xlink:href="#DejaVuSans-6d" transform="translate(560.498047 0)"/>
    <use xlink:href="#DejaVuSans-70" transform="translate(657.910156 0)"/>
    <use xlink:href="#DejaVuSans-61" transform="translate(721.386719 0)"/>
    <use xlink:href="#DejaVuSans-63" transform="translate(782.666016 0)"/>
    <use xlink:href="#DejaVuSans-74" transform="translate(837.646484 0)"/>
    <use xlink:href="#DejaVuSans-20" transform="translate(876.855469 0)"/>
    <use xlink:href="#DejaVuSans-6f" transform="translate(908.642578 0)"/>
    <use xlink:href="#DejaVuSans-66" transform="translate(969.824219 0)"/>
    <use xlink:href="#DejaVuSans-20" transform="translate(1005.029297 0)"/>
    <use xlink:href="#DejaVuSans-42" transform="translate(1036.816406 0)"/>
    <use xlink:href="#DejaVuSans-72" transform="translate(1105.419922 0)"/>
    <use xlink:href="#DejaVuSans-6f" transform="translate(1144.283203 0)"/>
    <use xlink:href="#DejaVuSans-77" transform="translate(1205.464844 0)"/>
    <use xlink:href="#DejaVuSans-6e" transform="translate(1287.251953 0)"/>
    <use xlink:href="#DejaVuSans-73" transform="translate(1350.630859 0)"/>
    <use xlink:href="#DejaVuSans-2c" transform="translate(1402.730469 0)"/>
    <use xlink:href="#DejaVuSans-20" transform="translate(1434.517578 0)"/>
    <use xlink:href="#DejaVuSans-42" transform="translate(1466.304688 0)"/>
    <use xlink:href="#DejaVuSans-69" transform="translate(1534.908203 0)"/>
    <use xlink:href="#DejaVuSans-6c" transform="translate(1562.691406 0)"/>
    <use xlink:href="#DejaVuSans-6c" transform="translate(1590.474609 0)"/>
    <use xlink:href="#DejaVuSans-73" transform="translate(1618.257812 0)"/>
    <use xlink:href="#DejaVuSans-20" transform="translate(1670.357422 0)"/>
    <use xlink:href="#DejaVuSans-61" transform="translate(1702.144531 0)"/>
    <use xlink:href="#DejaVuSans-6e" transform="translate(1763.423828 0)"/>
    <use xlink:href="#DejaVuSans-64" transform="translate(1826.802734 0)"/>
    <use xlink:href="#DejaVuSans-20" transform="translate(1890.279297 0)"/>
    <use xlink:href="#DejaVuSans-43" transform="translate(1922.066406 0)"/>
    <use xlink:href="#DejaVuSans-61" transform="translate(1991.890625 0)"/>
    <use xlink:href="#DejaVuSans-72" transform="translate(2053.169922 0)"/>
    <use xlink:href="#DejaVuSans-64" transform="translate(2092.533203 0)"/>
    <use xlink:href="#DejaVuSans-69" transform="translate(2156.009766 0)"/>
    <use xlink:href="#DejaVuSans-6e" transform="translate(2183.792969 0)"/>
    <use xlink:href="#DejaVuSans-61" transform="translate(2247.171875 0)"/>
    <use xlink:href="#DejaVuSans-6c" transform="translate(2308.451172 0)"/>
    <use xlink:href="#DejaVuSans-73" transform="translate(2336.234375 0)"/>
    <use xlink:href="#DejaVuSans-20" transform="translate(2388.333984 0)"/>
    <use xlink:href="#DejaVuSans-50" transform="translate(2420.121094 0)"/>
    <use xlink:href="#DejaVuSans-61" transform="translate(2475.923828 0)"/>
    <use xlink:href="#DejaVuSans-73" transform="translate(2537.203125 0)"/>
    <use xlink:href="#DejaVuSans-73" transform="translate(2589.302734 0)"/>
    <use xlink:href="#DejaVuSans-20" transform="translate(2641.402344 0)"/>
    <use xlink:href="#DejaVuSans-52" transform="translate(2673.189453 0)"/>
    <use xlink:href="#DejaVuSans-75" transform="translate(2738.171875 0)"/>
    <use xlink:href="#DejaVuSans-73" transform="translate(2801.550781 0)"/>
    <use xlink:href="#DejaVuSans-68" transform="translate(2853.650391 0)"/>
   </g>
  </g>
 </g>
 <defs>
  <clipPath id="pa6c51f8f51">
   <rect x="135" y="51.84" width="246.176471" height="332.64"/>
  </clipPath>
  <clipPath id="pd481fa0217">
   <rect x="430.411765" y="51.84" width="246.176471" height="332.64"/>
  </clipPath>
  <clipPath id="p3b9ed14bb0">
   <rect x="725.823529" y="51.84" width="246.176471" height="332.64"/>
  </clipPath>
 </defs>
</svg>
